<svg width="32" height="32" viewBox="0 0 32 32" fill="none" xmlns="http://www.w3.org/2000/svg">
<g clip-path="url(#clip0_9_1255)">
<circle cx="16" cy="16" r="16" fill="white"/>
<path d="M22.7917 12.375H21.9375L20.1667 7.4025C20.0201 6.99249 19.7537 6.63819 19.4035 6.3874C19.0534 6.13662 18.6362 6.0014 18.2083 6H16.5417C15.9687 6 15.5 6.47812 15.5 7.0625C15.5 7.64687 15.9687 8.125 16.5417 8.125H18.2083L19.7292 12.375H14.7188L14.3438 11.3125H14.4375C15.0104 11.3125 15.4792 10.8344 15.4792 10.25C15.4792 9.66562 15.0104 9.1875 14.4375 9.1875H11.3333C10.7604 9.1875 10.2917 9.66562 10.2917 10.25C10.2917 10.8344 10.7604 11.3125 11.3333 11.3125H12.1146L14.0104 16.625H13.3125C12.8542 14.2556 10.9062 12.5025 8.46875 12.3856C5.55208 12.2369 3 14.7125 3 17.6875C3 20.6625 5.29167 23 8.20833 23C10.7708 23 12.8437 21.2044 13.3125 18.75H17.6875C18.1458 21.1194 20.0938 22.8725 22.5312 22.9894C25.4479 23.1275 28 20.6625 28 17.6769C28 14.7125 25.7083 12.375 22.7917 12.375ZM9.25 18.75H11.1458C10.7083 20.0569 9.47917 20.96 8 20.8644C6.44792 20.7687 5.15625 19.43 5.08333 17.8363C5.01042 15.9769 6.40625 14.5 8.20833 14.5C9.59375 14.5 10.7292 15.3819 11.1458 16.625H9.25C8.67708 16.625 8.20833 17.1031 8.20833 17.6875C8.20833 18.2719 8.67708 18.75 9.25 18.75ZM17.6875 16.625H16.2292L15.4688 14.5H18.625C18.1667 15.1162 17.8333 15.8281 17.6875 16.625ZM22.6667 20.875C21.0625 20.8112 19.7083 19.4194 19.6667 17.7725C19.6458 16.7525 20.0729 15.86 20.7604 15.265L21.4062 17.0712C21.6042 17.6237 22.1979 17.9106 22.7396 17.7088C23.2813 17.5069 23.5625 16.9012 23.3646 16.3487L22.7083 14.5106L22.7188 14.5C23.1364 14.4855 23.5526 14.5574 23.9422 14.7115C24.3318 14.8656 24.6868 15.0986 24.9857 15.3965C25.2845 15.6944 25.5211 16.051 25.6811 16.4448C25.8411 16.8385 25.9213 17.2613 25.9167 17.6875C25.9167 19.515 24.4792 20.9387 22.6667 20.875Z" fill="url(#paint0_linear_9_1255)"/>
</g>
<defs>
<linearGradient id="paint0_linear_9_1255" x1="15.5" y1="6" x2="15.5" y2="23" gradientUnits="userSpaceOnUse">
<stop stop-color="#E59317"/>
<stop offset="1" stop-color="#FFB60D"/>
</linearGradient>
<clipPath id="clip0_9_1255">
<rect width="32" height="32" fill="white"/>
</clipPath>
</defs>
</svg>
