<svg width="21" height="20" viewBox="0 0 21 20" fill="none" xmlns="http://www.w3.org/2000/svg">
<path d="M16.6254 5.83373C16.6254 4.91748 15.8379 4.16748 14.8758 4.16748H13.1263C12.6446 4.16748 12.2508 4.54248 12.2508 4.99998C12.2508 5.45873 12.6446 5.83373 13.1263 5.83373H14.8758V8.04248L11.8308 11.6675H8.75039V8.33373C8.75039 7.87498 8.35664 7.49998 7.87626 7.49998H5.24995C4.79022 7.49982 4.33496 7.58593 3.91019 7.75341C3.48542 7.92089 3.09946 8.16645 2.77438 8.47605C2.4493 8.78565 2.19147 9.15322 2.01562 9.55776C1.83976 9.96231 1.74934 10.3959 1.74951 10.8337V12.5C1.74951 12.9587 2.14326 13.3337 2.62495 13.3337H3.49907C3.49907 14.7175 4.67245 15.8337 6.12407 15.8337C7.57701 15.8337 8.74907 14.7175 8.74907 13.3337H11.8295C12.3637 13.3337 12.8625 13.1 13.1945 12.7087L16.2395 9.08373C16.4928 8.78373 16.6241 8.41623 16.6241 8.04248L16.6254 5.83373ZM6.12539 14.1675C5.89365 14.1665 5.67172 14.0783 5.50797 13.9221C5.34423 13.7659 5.25195 13.5544 5.25126 13.3337H7.00083C7.00083 13.7925 6.60707 14.1675 6.12539 14.1675Z" fill="#9C9C9C"/>
<path d="M5.24995 5H7.87495C8.35664 5 8.75039 5.375 8.75039 5.83375C8.75039 6.29125 8.35664 6.66625 7.87626 6.66625H5.24995C5.01821 6.66559 4.79614 6.57771 4.63215 6.42177C4.46816 6.26582 4.37555 6.05445 4.37451 5.83375C4.37451 5.375 4.76826 5 5.24995 5ZM16.6267 10.8325C15.1738 10.8325 14.0017 11.95 14.0017 13.3325C14.0017 14.7163 15.1738 15.8325 16.6267 15.8325C18.0796 15.8325 19.2517 14.7163 19.2517 13.3325C19.2517 11.95 18.0796 10.8325 16.6267 10.8325ZM16.6267 14.1663C16.3947 14.1656 16.1725 14.0775 16.0084 13.9213C15.8444 13.7651 15.752 13.5534 15.7513 13.3325C15.7513 12.875 16.145 12.5 16.6267 12.5C17.1084 12.5 17.5021 12.875 17.5021 13.3325C17.5021 13.7913 17.1084 14.1663 16.6267 14.1663Z" fill="#9C9C9C"/>
</svg>
