<svg width="15" height="14" viewBox="0 0 15 14" fill="none" xmlns="http://www.w3.org/2000/svg">
<g clip-path="url(#clip0_7_260)">
<path d="M13.7504 3.49999C13.4073 3.49999 13.126 3.23749 13.126 2.91724V2.33362C13.1251 2.01249 12.8439 1.74999 12.5007 1.74999H11.8754C11.5323 1.74999 11.251 1.48749 11.251 1.16724C11.251 0.846118 11.5323 0.583618 11.8754 0.583618H12.5007C13.5385 0.583618 14.3757 1.36499 14.3757 2.33362V2.91724C14.3757 3.23749 14.0945 3.49999 13.7504 3.49999ZM11.8754 12.25H12.5007C12.6663 12.2495 12.8249 12.188 12.942 12.0789C13.0592 11.9697 13.1253 11.8217 13.126 11.6672V11.0836C13.126 10.7625 13.4073 10.5009 13.7504 10.5009C14.0945 10.5009 14.3757 10.7634 14.3757 11.0836V11.6672C14.3757 12.6359 13.5385 13.4172 12.5007 13.4172H11.8754C11.5323 13.4172 11.251 13.1547 11.251 12.8336C11.251 12.5125 11.5323 12.2509 11.8754 12.2509V12.25ZM2.50042 0.583618H3.12479C3.46886 0.583618 3.75011 0.846118 3.75011 1.16724C3.75011 1.48749 3.46886 1.74999 3.12479 1.74999H2.50042C2.15636 1.74999 1.87511 2.01249 1.87511 2.33362V2.91724C1.87511 3.23749 1.59386 3.49999 1.24979 3.49999C0.90667 3.49999 0.62542 3.23749 0.62542 2.91724V2.33362C0.62542 1.36499 1.46261 0.583618 2.50042 0.583618ZM1.24979 10.5C1.59386 10.5 1.87511 10.7625 1.87511 11.0836V11.6672C1.87511 11.9884 2.15636 12.2509 2.50042 12.2509H3.12479C3.46886 12.2509 3.75011 12.5134 3.75011 12.8336C3.75011 13.1547 3.46886 13.4172 3.12479 13.4172H2.50042C1.46261 13.4172 0.62542 12.6359 0.62542 11.6672V11.0836C0.62542 10.7625 0.90667 10.5009 1.24979 10.5009V10.5ZM3.12667 8.67474V5.32612C3.12667 4.90612 3.36386 4.52112 3.75105 4.31724L6.87667 2.63724C7.06614 2.53348 7.28184 2.47878 7.50151 2.47878C7.72119 2.47878 7.93689 2.53348 8.12636 2.63724L11.251 4.31024C11.6392 4.52024 11.8764 4.90524 11.8764 5.32524V8.67387C11.8764 9.09387 11.6392 9.47887 11.251 9.68274L8.12636 11.3627C7.93689 11.4665 7.72119 11.5212 7.50151 11.5212C7.28184 11.5212 7.06614 11.4665 6.87667 11.3627L3.75011 9.68362C3.55957 9.58219 3.40135 9.43532 3.29164 9.25804C3.18193 9.08077 3.12467 8.87946 3.12573 8.67474H3.12667ZM8.12636 10.0161L10.6267 8.67474V5.97362L8.12636 7.33249V10.0161ZM7.50104 6.32362L9.97604 4.97612L7.50104 3.64612L5.02604 4.97612L7.50104 6.32362ZM4.37636 8.67474L6.87667 10.0161V7.33249L4.37636 5.97362V8.67474Z" fill="#9C9C9C"/>
</g>
<defs>
<clipPath id="clip0_7_260">
<rect width="15" height="14" fill="white" transform="matrix(-1 0 0 1 15 0)"/>
</clipPath>
</defs>
</svg>
