<svg width="136" height="32" viewBox="0 0 136 32" fill="none" xmlns="http://www.w3.org/2000/svg">
<path d="M5.04 11.196C5.688 10.236 6.576 9.456 7.704 8.856C8.856 8.256 10.164 7.956 11.628 7.956C13.332 7.956 14.868 8.376 16.236 9.216C17.628 10.056 18.72 11.256 19.512 12.816C20.328 14.352 20.736 16.14 20.736 18.18C20.736 20.22 20.328 22.032 19.512 23.616C18.72 25.176 17.628 26.388 16.236 27.252C14.868 28.116 13.332 28.548 11.628 28.548C10.14 28.548 8.832 28.26 7.704 27.684C6.6 27.084 5.712 26.316 5.04 25.38V28.224H0V1.584H5.04V11.196ZM15.588 18.18C15.588 16.98 15.336 15.948 14.832 15.084C14.352 14.196 13.704 13.524 12.888 13.068C12.1004 12.6131 11.2055 12.377 10.296 12.384C9.384 12.384 8.52 12.624 7.704 13.104C6.912 13.56 6.264 14.232 5.76 15.12C5.28 16.008 5.04 17.052 5.04 18.252C5.04 19.452 5.28 20.496 5.76 21.384C6.264 22.272 6.912 22.956 7.704 23.436C8.52 23.892 9.384 24.12 10.296 24.12C11.232 24.12 12.096 23.88 12.888 23.4C13.704 22.92 14.352 22.236 14.832 21.348C15.336 20.46 15.588 19.404 15.588 18.18ZM26.954 5.904C26.066 5.904 25.322 5.628 24.722 5.076C24.146 4.5 23.858 3.792 23.858 2.952C23.858 2.112 24.146 1.416 24.722 0.864C25.322 0.288 26.066 0 26.954 0C27.842 0 28.574 0.288 29.15 0.864C29.75 1.416 30.05 2.112 30.05 2.952C30.05 3.792 29.75 4.5 29.15 5.076C28.574 5.628 27.842 5.904 26.954 5.904ZM29.438 8.28V28.224H24.398V8.28H29.438ZM46.226 28.224L39.458 19.728V28.224H34.418V1.584H39.458V16.74L46.154 8.28H52.706L43.922 18.288L52.778 28.224H46.226ZM53.145 18.252C53.145 16.188 53.565 14.388 54.405 12.852C55.245 11.292 56.409 10.092 57.897 9.252C59.385 8.388 61.089 7.956 63.009 7.956C65.481 7.956 67.521 8.58 69.129 9.828C70.761 11.052 71.853 12.78 72.405 15.012H66.97C66.682 14.148 66.19 13.476 65.494 12.996C64.822 12.492 63.982 12.24 62.974 12.24C61.534 12.24 60.394 12.768 59.554 13.824C58.714 14.856 58.294 16.332 58.294 18.252C58.294 20.148 58.714 21.624 59.554 22.68C60.394 23.712 61.534 24.228 62.974 24.228C65.014 24.228 66.346 23.316 66.97 21.492H72.406C71.854 23.652 70.762 25.368 69.13 26.64C67.498 27.912 65.458 28.548 63.01 28.548C61.09 28.548 59.386 28.128 57.898 27.288C56.4218 26.4362 55.2125 25.1895 54.406 23.688C53.566 22.128 53.145 20.316 53.145 18.252ZM80.138 11.376C80.756 10.3495 81.6227 9.4952 82.658 8.892C83.714 8.292 84.914 7.992 86.258 7.992V13.284H84.926C83.342 13.284 82.142 13.656 81.326 14.4C80.534 15.144 80.138 16.44 80.138 18.288V28.224H75.098V8.28H80.138V11.376ZM101.712 25.38C101.16 26.292 100.26 27.06 99.012 27.684C97.764 28.284 96.42 28.584 94.98 28.584C93.732 28.584 92.604 28.332 91.596 27.828C90.588 27.324 89.796 26.628 89.22 25.74C88.644 24.852 88.356 23.832 88.356 22.68C88.356 20.832 89.04 19.32 90.408 18.144C91.8 16.968 93.876 16.38 96.636 16.38H101.712C101.664 15.108 101.292 14.1 100.596 13.356C99.924 12.588 98.988 12.204 97.788 12.204C96.732 12.204 95.856 12.492 95.16 13.068C94.464 13.62 94.02 14.4 93.828 15.408H88.788C89.028 13.968 89.544 12.684 90.336 11.556C91.1449 10.41 92.2362 9.4923 93.504 8.892C94.824 8.244 96.3 7.92 97.932 7.92C99.612 7.92 101.124 8.268 102.468 8.964C103.803 9.6289 104.916 10.6669 105.672 11.952C106.44 13.248 106.824 14.772 106.824 16.524V28.224H101.712V25.38ZM96.456 24.516C97.296 24.516 98.112 24.336 98.904 23.976C99.72 23.616 100.392 23.076 100.92 22.356C101.448 21.636 101.712 20.784 101.712 19.8V19.656H96.924C95.772 19.656 94.908 19.884 94.332 20.34C93.78 20.796 93.504 21.396 93.504 22.14C93.504 22.86 93.756 23.436 94.26 23.868C94.788 24.3 95.52 24.516 96.456 24.516ZM117.453 12.42V28.224H112.341V12.42H110.073V8.28H112.341V7.272C112.341 4.824 113.037 3.024 114.429 1.872C115.821 0.72 117.921 0.18 120.729 0.252V4.5C119.505 4.476 118.653 4.68 118.173 5.112C117.693 5.544 117.453 6.324 117.453 7.452V8.28H124.003V3.348H129.079V8.28H133.543V12.42H129.079V22.068C129.079 22.74 129.235 23.232 129.547 23.544C129.883 23.832 130.435 23.976 131.203 23.976H133.543V28.224H130.375C126.127 28.224 124.003 26.16 124.003 22.032V12.42H117.453Z" fill="white"/>
</svg>
