<svg width="37" height="37" viewBox="0 0 37 37" fill="none" xmlns="http://www.w3.org/2000/svg">
<g clip-path="url(#clip0_8_480)">
<path d="M18.5 0C13.4741 0 12.8467 0.023125 10.8734 0.111C8.90313 0.2035 7.56187 0.513375 6.3825 0.97125C5.16612 1.443 4.13321 2.07662 3.10491 3.10491C2.07662 4.13321 1.44146 5.16459 0.97125 6.3825C0.513375 7.56187 0.201959 8.90313 0.111 10.8734C0.0185 12.8467 0 13.4741 0 18.5C0 23.5259 0.023125 24.1533 0.111 26.1266C0.2035 28.0954 0.513375 29.4381 0.97125 30.6175C1.443 31.8324 2.07662 32.8668 3.10491 33.8951C4.13321 34.9219 5.16459 35.5585 6.3825 36.0288C7.56341 36.4851 8.90466 36.798 10.8734 36.889C12.8467 36.9815 13.4741 37 18.5 37C23.5259 37 24.1533 36.9769 26.1266 36.889C28.0954 36.7965 29.4381 36.4851 30.6175 36.0288C31.8324 35.557 32.8668 34.9219 33.8951 33.8951C34.9219 32.8668 35.5585 31.837 36.0288 30.6175C36.4851 29.4381 36.798 28.0954 36.889 26.1266C36.9815 24.1533 37 23.5259 37 18.5C37 13.4741 36.9769 12.8467 36.889 10.8734C36.7965 8.90466 36.4851 7.56034 36.0288 6.3825C35.557 5.16612 34.9219 4.13321 33.8951 3.10491C32.8668 2.07662 31.837 1.44146 30.6175 0.97125C29.4381 0.513375 28.0954 0.201959 26.1266 0.111C24.1533 0.0185 23.5259 0 18.5 0ZM18.5 3.33C23.438 3.33 24.0269 3.35466 25.9771 3.43946C27.7809 3.52425 28.7598 3.82334 29.4104 4.07925C30.2768 4.41379 30.8904 4.81463 31.541 5.46059C32.1869 6.10809 32.5877 6.72321 32.9223 7.58963C33.1751 8.24021 33.4773 9.21916 33.559 11.0229C33.6469 12.9746 33.6669 13.5605 33.6669 18.5C33.6669 23.4395 33.6438 24.0269 33.5529 25.9771C33.4588 27.7809 33.1581 28.7598 32.9038 29.4104C32.5585 30.2768 32.1654 30.8904 31.5179 31.541C30.8719 32.1869 30.2475 32.5877 29.3904 32.9223C28.7429 33.1751 27.7485 33.4773 25.9447 33.559C23.9806 33.6469 23.4025 33.6669 18.4538 33.6669C13.5035 33.6669 12.9254 33.6438 10.9628 33.5529C9.1575 33.4588 8.16313 33.1581 7.51562 32.9038C6.63841 32.5585 6.03563 32.1654 5.38966 31.5179C4.74063 30.8719 4.32591 30.2475 4.00216 29.3904C3.74779 28.7429 3.44871 27.7485 3.35466 25.9447C3.28529 24.0022 3.26062 23.4025 3.26062 18.4769C3.26062 13.5497 3.28529 12.9485 3.35466 10.9828C3.44871 9.17909 3.74779 8.18625 4.00216 7.53875C4.32591 6.66 4.74063 6.05875 5.38966 5.40971C6.03563 4.76375 6.63841 4.3475 7.51562 4.02529C8.16313 3.76937 9.13591 3.46875 10.9397 3.37625C12.9053 3.30687 13.4834 3.28375 18.4306 3.28375L18.5 3.33ZM18.5 9.00025C13.2506 9.00025 9.00025 13.2552 9.00025 18.5C9.00025 23.7494 13.2552 27.9998 18.5 27.9998C23.7494 27.9998 27.9998 23.7447 27.9998 18.5C27.9998 13.2506 23.7447 9.00025 18.5 9.00025ZM18.5 24.6666C15.0929 24.6666 12.3334 21.9071 12.3334 18.5C12.3334 15.0929 15.0929 12.3334 18.5 12.3334C21.9071 12.3334 24.6666 15.0929 24.6666 18.5C24.6666 21.9071 21.9071 24.6666 18.5 24.6666ZM30.5959 8.62562C30.5959 9.85125 29.6 10.8456 28.3759 10.8456C27.1503 10.8456 26.1559 9.84971 26.1559 8.62562C26.1559 7.40154 27.1519 6.40716 28.3759 6.40716C29.5985 6.40562 30.5959 7.40154 30.5959 8.62562Z" fill="url(#paint0_linear_8_480)"/>
</g>
<defs>
<linearGradient id="paint0_linear_8_480" x1="18.5" y1="0" x2="18.5" y2="37" gradientUnits="userSpaceOnUse">
<stop stop-color="#FFBF00"/>
<stop offset="1" stop-color="#F2A60C"/>
</linearGradient>
<clipPath id="clip0_8_480">
<rect width="37" height="37" fill="white"/>
</clipPath>
</defs>
</svg>
