<svg width="37" height="36" viewBox="0 0 37 36" fill="none" xmlns="http://www.w3.org/2000/svg">
<path d="M36.2261 9.27889C36.0171 8.5128 35.6049 7.81359 35.0307 7.25128C34.4566 6.68897 33.7406 6.2833 32.9546 6.07489C30.0702 5.31738 18.5 5.31738 18.5 5.31738C18.5 5.31738 6.92979 5.31738 4.04379 6.07489C3.25817 6.28367 2.54266 6.68949 1.96883 7.25175C1.39499 7.81403 0.982954 8.51305 0.773916 9.27889C0 12.1049 0 17.9999 0 17.9999C0 17.9999 0 23.8949 0.773916 26.7209C0.982945 27.487 1.39517 28.1862 1.96931 28.7485C2.54345 29.3108 3.25935 29.7164 4.04534 29.9249C6.92979 30.6824 18.5 30.6824 18.5 30.6824C18.5 30.6824 30.0702 30.6824 32.9562 29.9249C33.7423 29.7167 34.4582 29.311 35.0324 28.7487C35.6066 28.1863 36.0187 27.487 36.2276 26.7209C37 23.8949 37 17.9999 37 17.9999C37 17.9999 37 12.1049 36.2261 9.27889ZM14.7152 23.3519V12.6479L24.3861 17.9999L14.7152 23.3519Z" fill="url(#paint0_linear_8_482)"/>
<defs>
<linearGradient id="paint0_linear_8_482" x1="18.5" y1="5.31738" x2="18.5" y2="30.6824" gradientUnits="userSpaceOnUse">
<stop stop-color="#FFBF00"/>
<stop offset="1" stop-color="#F2A60C"/>
</linearGradient>
</defs>
</svg>
