<svg width="168" height="46" viewBox="0 0 168 46" fill="none" xmlns="http://www.w3.org/2000/svg">
<g clip-path="url(#clip0_5_33)">
<path d="M14.367 27.5237V33.6805C14.367 36.7588 13.023 37.8689 10.887 37.8689C8.75101 37.8689 7.40821 36.7588 7.40821 33.6805V10.4057C7.40821 7.32732 8.75221 6.15674 10.8882 6.15674C13.0242 6.15674 14.367 7.32732 14.367 10.4057V15.0238H20.715V10.8366C20.715 3.94026 17.2962 0 10.7046 0C4.11181 0 0.694214 3.94026 0.694214 10.8366V33.2495C0.694214 40.1459 4.11181 44.0874 10.7046 44.0874C17.2962 44.0874 20.715 40.1459 20.715 33.2495V27.5237H14.367ZM39.6978 0.492684L46.5342 43.5947H39.759L38.5986 35.7747H30.3594L29.199 43.5947H23.0346L29.871 0.492684H39.6978ZM34.3878 8.12747L31.2138 29.9254H37.683L34.5102 8.12626H34.389L34.3878 8.12747ZM70.5222 43.5947H63.6858C63.3198 42.4858 63.075 41.8079 63.075 38.2986V31.5257C63.075 27.5237 61.7322 26.0457 58.6806 26.0457H56.361V43.5947H49.647V0.492684H59.7798C66.7374 0.492684 69.7278 3.75626 69.7278 10.4069V13.7927C69.7278 18.2257 68.3238 21.0583 65.3334 22.4746C68.691 24.0132 69.789 27.2151 69.789 31.7109V38.3604C69.789 40.4546 69.8514 41.9932 70.5222 43.5947ZM59.5962 6.64942H56.361V19.8889H58.9854C61.4886 19.8889 63.0138 18.7813 63.0138 15.3325V11.0836C63.0138 8.00521 61.977 6.64942 59.5962 6.64942ZM90.9846 0.492684L97.821 43.5947H91.0458L89.8866 35.7747H81.6462L80.487 43.5947H74.3214L81.1578 0.492684H90.9846ZM85.6746 8.12747L82.5006 29.9254H88.971L85.797 8.12626H85.6746V8.12747ZM104.032 0.492684H97.257L103.849 43.5947H113.859L120.451 0.492684H114.286L109.22 35.65H109.097L104.032 0.492684ZM136.55 0.492684L143.386 43.5947H136.611L135.452 35.7747H127.211L126.051 43.5947H119.887L126.723 0.492684H136.55ZM131.24 8.12747L128.066 29.9254H134.536L131.362 8.12626H131.24V8.12747ZM161.797 43.5947H168.694V0.492684H162.712V26.2914H162.59L155.815 0.492684H147.392V43.5947H153.435V12.3752H153.556L161.797 43.5947Z" fill="#9C9C9C"/>
</g>
<defs>
<clipPath id="clip0_5_33">
<rect width="168" height="46" fill="white"/>
</clipPath>
</defs>
</svg>
