<svg width="164" height="42" viewBox="0 0 164 42" fill="none" xmlns="http://www.w3.org/2000/svg">
<path fill-rule="evenodd" clip-rule="evenodd" d="M24.8417 18.1461H27.7732C30.8029 18.1461 32.4396 21.6913 30.4662 23.9884L27.5962 27.3269C27.907 29.3069 28.9546 31.0971 30.5299 32.34C32.1066 33.5835 34.0947 34.1887 36.0984 34.035C38.102 33.8813 39.9742 32.9801 41.342 31.5107C42.7088 30.042 43.4698 28.1124 43.473 26.1078C43.4727 25.7591 43.5413 25.4137 43.675 25.0915C43.8086 24.7693 44.0046 24.4766 44.2518 24.2301C44.4989 23.9836 44.7923 23.7882 45.1153 23.6551C45.4382 23.5219 45.7843 23.4537 46.1336 23.4543C46.8389 23.4546 47.5153 23.7341 48.0143 24.2316C48.5134 24.7291 48.7943 25.4038 48.7954 26.1078C48.7952 28.8926 47.9164 31.6067 46.2836 33.8649C45.0611 35.5522 43.4588 36.9294 41.6055 37.8855C39.7523 38.8417 37.7 39.3501 35.6139 39.3698C33.5278 39.3895 31.4662 38.9199 29.5952 37.9989C27.7241 37.078 26.0959 35.7313 24.8417 34.0673C23.5875 35.7313 21.9593 37.078 20.0882 37.9989C18.2172 38.9199 16.1556 39.3895 14.0695 39.3698C11.9834 39.3501 9.93112 38.8417 8.07787 37.8855C6.22463 36.9294 4.62225 35.5522 3.39977 33.8649C1.76662 31.6068 0.887415 28.8928 0.886903 26.1078C0.886618 25.759 0.955296 25.4135 1.089 25.0913C1.22271 24.769 1.41881 24.4762 1.66608 24.2297C1.91334 23.9832 2.20691 23.7878 2.52996 23.6548C2.85301 23.5217 3.19919 23.4536 3.54867 23.4543C4.25396 23.4546 4.93034 23.7341 5.42936 24.2316C5.92838 24.7291 6.20929 25.4038 6.21043 26.1078C6.20744 28.1156 6.96518 30.0502 8.33164 31.5237C9.35193 32.6236 10.6622 33.4143 12.1122 33.8048C13.5621 34.1954 15.093 34.1701 16.5292 33.7318C17.9654 33.2936 19.2487 32.4601 20.232 31.327C21.2153 30.194 21.8586 28.8072 22.0882 27.3258L19.2161 23.9873C17.2437 21.6913 18.8794 18.1472 21.9134 18.1472L24.8417 18.1461Z" fill="#9C9C9C"/>
<path d="M37.2615 11.0708C37.9602 11.0714 38.6521 10.9345 39.2979 10.6681C39.9436 10.4017 40.5304 10.0109 41.0247 9.51807C41.5191 9.02523 41.9113 8.44001 42.179 7.79583C42.4468 7.15165 42.5847 6.46114 42.585 5.76374C42.5847 5.06634 42.4468 4.37583 42.179 3.73166C41.9113 3.08748 41.5191 2.50226 41.0247 2.00942C40.5304 1.51658 39.9436 1.12579 39.2979 0.859365C38.6521 0.592939 37.9602 0.456101 37.2615 0.456667C36.5628 0.456242 35.871 0.593185 35.2254 0.859674C34.5798 1.12616 33.9931 1.51698 33.4989 2.0098C33.0046 2.50262 32.6125 3.0878 32.3448 3.7319C32.0772 4.37601 31.9393 5.06644 31.939 5.76374C31.9393 6.46105 32.0772 7.15148 32.3448 7.79558C32.6125 8.43969 33.0046 9.02487 33.4989 9.51769C33.9931 10.0105 34.5798 10.4013 35.2254 10.6678C35.871 10.9343 36.5628 11.0712 37.2615 11.0708ZM12.4208 11.0708C13.1195 11.0712 13.8113 10.9343 14.4569 10.6678C15.1025 10.4013 15.6892 10.0105 16.1834 9.51769C16.6777 9.02487 17.0698 8.43969 17.3375 7.79558C17.6051 7.15148 17.743 6.46105 17.7433 5.76374C17.743 5.06644 17.6051 4.37601 17.3375 3.7319C17.0698 3.0878 16.6777 2.50262 16.1834 2.0098C15.6892 1.51698 15.1025 1.12616 14.4569 0.859674C13.8113 0.593185 13.1195 0.456242 12.4208 0.456667C11.7221 0.456101 11.0302 0.592939 10.3844 0.859365C9.73873 1.12579 9.15193 1.51658 8.65757 2.00942C8.16321 2.50226 7.77097 3.08748 7.50325 3.73166C7.23554 4.37583 7.0976 5.06634 7.09732 5.76374C7.0976 6.46114 7.23554 7.15165 7.50325 7.79583C7.77097 8.44001 8.16321 9.02523 8.65757 9.51807C9.15193 10.0109 9.73873 10.4017 10.3844 10.6681C11.0302 10.9345 11.7221 11.0714 12.4208 11.0708ZM85.717 1.75328C86.537 1.75328 87.2102 1.98697 87.7368 2.45436C88.2633 2.92174 88.5266 3.53559 88.5266 4.2959V30.5028C88.5266 31.2922 88.2784 31.9201 87.7799 32.3874C87.2836 32.8548 86.6244 33.0885 85.8055 33.0885C84.9855 33.0885 84.3273 32.8548 83.8288 32.3885C83.3314 31.9201 83.0822 31.2922 83.0822 30.5039V29.4076C82.4381 30.6051 81.5015 31.5399 80.2715 32.2119C79.0717 32.8839 77.6961 33.2199 76.1446 33.2199C74.2996 33.2199 72.6466 32.7525 71.1836 31.8177C69.7486 30.883 68.6221 29.5681 67.8021 27.873C67.0113 26.1499 66.6164 24.1781 66.6164 21.9574C66.6164 19.7368 67.0113 17.7941 67.8021 16.1281C68.6221 14.4631 69.7486 13.1773 71.1836 12.2716C72.6175 11.3659 74.2715 10.9125 76.1446 10.9125C77.6961 10.9125 79.0717 11.2345 80.2726 11.8774C81.4427 12.4911 82.4049 13.4364 83.0379 14.5945V4.20759C83.0379 3.47744 83.2721 2.89267 83.7403 2.45436C84.2388 1.98697 84.897 1.75328 85.717 1.75328ZM77.5936 28.9693C79.3501 28.9693 80.6966 28.3705 81.6332 27.1719C82.5988 25.9744 83.0822 24.2642 83.0822 22.0447C83.0822 19.8241 82.5988 18.129 81.6332 16.9616C80.6966 15.763 79.3652 15.1631 77.6378 15.1631C75.8813 15.1631 74.5197 15.7479 73.554 16.9174C72.5883 18.0859 72.105 19.7659 72.105 21.9574C72.105 24.1781 72.5883 25.9011 73.554 27.1288C74.5197 28.3565 75.8662 28.9693 77.5936 28.9693ZM103.964 33.2199C101.77 33.2199 99.8372 32.7676 98.1691 31.8619C96.5291 30.9562 95.256 29.6564 94.3486 27.9613C93.4412 26.2662 92.9869 24.2944 92.9869 22.0447C92.9869 19.795 93.4401 17.8371 94.3486 16.1722C95.256 14.4771 96.5291 13.1773 98.168 12.2716C99.8372 11.3659 101.77 10.9125 103.964 10.9125C106.16 10.9125 108.077 11.3648 109.716 12.2716C111.359 13.1511 112.693 14.5125 113.537 16.1722C114.444 17.8371 114.898 19.795 114.898 22.0447C114.898 24.2954 114.444 26.2662 113.537 27.9613C112.693 29.621 111.359 30.9824 109.716 31.8619C108.077 32.7665 106.159 33.2199 103.964 33.2199ZM103.921 28.9693C105.707 28.9693 107.067 28.3845 108.004 27.2161C108.941 26.0476 109.41 24.3234 109.41 22.0447C109.41 19.795 108.941 18.0859 108.004 16.9174C107.067 15.7188 105.721 15.1201 103.964 15.1201C102.209 15.1201 100.846 15.7188 99.8814 16.9174C98.9449 18.0859 98.4755 19.795 98.4755 22.0447C98.4755 24.3234 98.9438 26.0476 99.8814 27.2161C100.818 28.3845 102.164 28.9693 103.921 28.9693ZM137.607 11.0008C138.427 11.0008 139.085 11.2345 139.582 11.7008C140.081 12.1693 140.329 12.7971 140.329 13.5854V30.897C140.329 34.257 139.392 36.7985 137.519 38.5237C135.645 40.2468 132.88 41.1084 129.22 41.1084C126.03 41.1084 123.366 40.5107 121.229 39.3121C120.146 38.6691 119.605 37.8948 119.605 36.9891C119.605 36.3462 119.751 35.8357 120.044 35.4556C120.365 35.0754 120.775 34.8848 121.273 34.8848C121.537 34.8848 121.858 34.944 122.239 35.0614C122.619 35.2068 123.015 35.3684 123.424 35.5428C124.341 35.9322 125.279 36.2687 126.235 36.5508C127.084 36.7845 128.049 36.9019 129.133 36.9019C132.967 36.9019 134.885 35.0324 134.885 31.2911V28.4868C134.24 29.6854 133.304 30.6191 132.075 31.2922C130.845 31.9351 129.44 32.2561 127.86 32.2561C125.985 32.2561 124.317 31.8177 122.853 30.9422C121.419 30.0354 120.293 28.7797 119.473 27.173C118.653 25.5651 118.243 23.7107 118.243 21.6064C118.243 19.5031 118.639 17.6476 119.429 16.0408C120.249 14.4039 121.39 13.1482 122.853 12.2716C124.317 11.3659 125.985 10.9125 127.86 10.9125C129.44 10.9125 130.845 11.2485 132.075 11.9205C133.272 12.5324 134.253 13.4962 134.885 14.6817V13.5424C134.885 12.7831 135.134 12.1693 135.631 11.7008C136.129 11.2345 136.788 11.0008 137.607 11.0008ZM129.309 28.0054C131.065 28.0054 132.426 27.4347 133.391 26.2964C134.387 25.1559 134.885 23.5933 134.885 21.6064C134.885 19.5904 134.387 18.0127 133.391 16.8733C132.426 15.7339 131.065 15.1642 129.309 15.1642C127.581 15.1642 126.22 15.7339 125.225 16.8733C124.23 18.0127 123.732 19.5904 123.732 21.6064C123.732 23.5933 124.23 25.1559 125.225 26.2964C126.22 27.4357 127.581 28.0054 129.309 28.0054ZM153.786 33.2199C150.595 33.2199 148.02 32.5921 146.058 31.3353C145.122 30.7807 144.653 29.9913 144.653 28.9693C144.653 28.3845 144.814 27.9171 145.136 27.5671C145.458 27.187 145.853 26.9964 146.321 26.9964C146.819 26.9964 147.507 27.2311 148.385 27.6985C149.322 28.1368 150.171 28.4728 150.932 28.7065C151.723 28.9402 152.717 29.0565 153.917 29.0565C155.147 29.0565 156.099 28.8519 156.772 28.4427C157.475 28.0334 157.825 27.4648 157.825 26.7336C157.825 26.2382 157.68 25.843 157.386 25.5511C157.123 25.2582 156.625 24.9954 155.894 24.7617C155.19 24.499 154.108 24.2071 152.644 23.8851C150.04 23.3596 148.165 22.6144 147.024 21.6505C145.911 20.6867 145.356 19.3567 145.356 17.6627C145.356 16.3768 145.736 15.2224 146.497 14.1993C147.258 13.1482 148.297 12.3448 149.614 11.7891C150.961 11.2054 152.483 10.9125 154.181 10.9125C155.411 10.9125 156.596 11.0741 157.738 11.395C158.827 11.6645 159.865 12.1081 160.812 12.7088C161.748 13.2936 162.217 14.0679 162.217 15.0328C162.217 15.6165 162.056 16.1141 161.733 16.5222C161.412 16.9024 161.016 17.093 160.547 17.093C160.226 17.093 159.903 17.0337 159.582 16.9174C159.197 16.7217 158.816 16.517 158.44 16.3036C157.591 15.8653 156.86 15.5444 156.245 15.3397C155.63 15.1061 154.869 14.9887 153.961 14.9887C152.878 14.9887 152.015 15.2084 151.371 15.6456C150.756 16.0839 150.448 16.6837 150.448 17.443C150.448 18.1731 150.771 18.7288 151.415 19.1079C152.059 19.4881 153.303 19.8682 155.147 20.2484C157.109 20.6576 158.645 21.1239 159.758 21.6505C160.87 22.1761 161.66 22.8341 162.128 23.6224C162.627 24.4117 162.875 25.4197 162.875 26.6464C162.875 28.6333 162.041 30.2261 160.373 31.4236C158.733 32.6211 156.537 33.2199 153.786 33.2199Z" fill="#9C9C9C"/>
</svg>
