<svg width="167" height="39" viewBox="0 0 167 39" fill="none" xmlns="http://www.w3.org/2000/svg">
<g clip-path="url(#clip0_5_38)">
<path d="M2.73717 30.8634C1.91032 30.8634 1.24028 30.6047 0.727061 30.0875C0.242354 29.5702 0 28.8949 0 28.0615V2.84495C0 2.01158 0.228098 1.365 0.684293 0.90521C1.169 0.445421 1.82478 0.215526 2.65163 0.215526H17.6633C19.4025 0.215526 20.2722 0.962684 20.2722 2.457C20.2722 3.92258 19.4025 4.65537 17.6633 4.65537H5.43157V12.9316H16.8079C18.5472 12.9316 19.4168 13.6787 19.4168 15.1731C19.4168 16.6386 18.5472 17.3714 16.8079 17.3714H5.43157V28.0615C5.43157 28.8949 5.18922 29.5702 4.70451 30.0875C4.2198 30.6047 3.56402 30.8634 2.73717 30.8634ZM28.1181 30.8634C27.3483 30.8634 26.7068 30.6478 26.1935 30.2168C25.7088 29.757 25.4665 29.1104 25.4665 28.2771V2.54321C25.4665 1.70984 25.7088 1.07763 26.1935 0.646579C26.7068 0.215526 27.3483 0 28.1181 0C28.8879 0 29.5295 0.215526 30.0427 0.646579C30.5559 1.07763 30.8125 1.70984 30.8125 2.54321V28.2771C30.8125 29.1104 30.5559 29.757 30.0427 30.2168C29.5295 30.6478 28.8879 30.8634 28.1181 30.8634ZM52.8769 24.8286C53.3616 24.8286 53.7465 25.0154 54.0316 25.389C54.3453 25.7626 54.5021 26.2655 54.5021 26.8977C54.5021 27.7885 53.9746 28.5357 52.9197 29.1392C51.9502 29.6852 50.8525 30.1306 49.6265 30.4754C48.4005 30.7915 47.2315 30.9496 46.1195 30.9496C42.7551 30.9496 40.0892 29.9725 38.1218 28.0184C36.1545 26.0643 35.1708 23.3918 35.1708 20.0008C35.1708 17.8456 35.5985 15.9346 36.4539 14.2678C37.3092 12.6011 38.5067 11.3079 40.0464 10.3884C41.6146 9.46879 43.3823 9.009 45.3497 9.009C47.2315 9.009 48.8709 9.42568 50.268 10.2591C51.6651 11.0924 52.7486 12.2706 53.5184 13.7937C54.2882 15.3167 54.6732 17.1128 54.6732 19.1818C54.6732 20.4175 54.1314 21.0354 53.048 21.0354H40.4313C40.6024 23.0182 41.1584 24.4838 42.0993 25.4321C43.0402 26.3517 44.4088 26.8115 46.205 26.8115C47.1174 26.8115 47.9158 26.6965 48.6001 26.4666C49.3129 26.2367 50.1112 25.9206 50.9951 25.5183C51.8504 25.0585 52.4777 24.8286 52.8769 24.8286ZM45.477 12.8023C44.0228 12.8023 42.8538 13.2621 41.97 14.1816C41.1146 15.1012 40.6014 16.4231 40.4303 18.1473H50.0959C50.0389 16.3944 49.6112 15.0725 48.8129 14.1816C48.0145 13.2621 46.9026 12.8023 45.477 12.8023ZM76.762 26.639C77.2752 27.1563 77.5318 27.7454 77.5318 28.4064C77.5318 29.0386 77.2894 29.6133 76.8047 30.1306C76.32 30.6191 75.7498 30.8634 75.094 30.8634C74.3812 30.8634 73.7682 30.5616 73.255 29.9582L67.2246 23.2337L61.1943 29.9582C60.6526 30.5329 60.0396 30.8203 59.3553 30.8203C58.728 30.8203 58.172 30.576 57.6873 30.0875C57.2026 29.5989 56.9602 29.0386 56.9602 28.4064C56.9602 27.7454 57.2168 27.1563 57.7301 26.639L63.9742 19.7853L58.0722 13.3195C57.559 12.8023 57.3024 12.2132 57.3024 11.5522C57.3024 10.8913 57.5447 10.3309 58.0294 9.8711C58.5142 9.38258 59.0701 9.13832 59.6974 9.13832C60.3817 9.13832 60.9947 9.42568 61.5364 10.0004L67.2246 16.2938L72.9128 10.0004C73.4545 9.42568 74.0676 9.13832 74.7518 9.13832C75.4076 9.13832 75.9636 9.38258 76.4198 9.8711C76.9045 10.3309 77.1469 10.8913 77.1469 11.5522C77.1469 12.2132 76.8903 12.8023 76.377 13.3195L70.475 19.7853L76.762 26.639ZM100.423 14.9144C102.162 15.4029 103.502 16.2938 104.443 17.5869C105.413 18.8801 105.897 20.4606 105.897 22.3285C105.897 24.9148 104.971 26.9408 103.117 28.4064C101.293 29.8719 98.7693 30.6047 95.5474 30.6047H84.5132C83.6863 30.6047 83.0306 30.3748 82.5459 29.9151C82.0897 29.4553 81.8616 28.8087 81.8616 27.9753V2.84495C81.8616 2.01158 82.0897 1.365 82.5459 0.90521C83.0306 0.445421 83.6863 0.215526 84.5132 0.215526H95.1187C98.2551 0.215526 100.707 0.919579 102.475 2.32768C104.271 3.70705 105.169 5.64679 105.169 8.14689C105.169 9.75616 104.742 11.1499 103.886 12.3281C103.059 13.5063 101.905 14.3684 100.422 14.9144H100.423ZM87.2504 13.0178H94.2216C98.0137 13.0178 99.9098 11.5953 99.9098 8.75037C99.9098 7.31353 99.4393 6.25026 98.4984 5.56058C97.5575 4.87089 96.1319 4.52605 94.2216 4.52605H87.2504V13.0178ZM94.9487 26.2942C96.9445 26.2942 98.3986 25.935 99.311 25.2166C100.223 24.4982 100.68 23.3774 100.68 21.8544C100.68 20.3313 100.209 19.1962 99.2683 18.4491C98.3559 17.7019 96.916 17.3283 94.9487 17.3283H87.2504V26.2942H94.9487ZM113.237 30.8634C112.467 30.8634 111.826 30.6478 111.313 30.2168C110.828 29.757 110.586 29.1104 110.586 28.2771V2.54321C110.586 1.70984 110.828 1.07763 111.313 0.646579C111.826 0.215526 112.467 0 113.237 0C114.007 0 114.649 0.215526 115.162 0.646579C115.675 1.07763 115.932 1.70984 115.932 2.54321V28.2771C115.932 29.1104 115.675 29.757 115.162 30.2168C114.649 30.6478 114.007 30.8634 113.237 30.8634ZM130.982 30.9496C128.844 30.9496 126.962 30.5042 125.337 29.6133C123.74 28.7225 122.5 27.4437 121.616 25.7769C120.732 24.1102 120.29 22.1705 120.29 19.9577C120.29 17.745 120.732 15.8196 121.616 14.1816C122.5 12.5149 123.74 11.2361 125.337 10.3453C126.962 9.45442 128.844 9.009 130.982 9.009C133.12 9.009 134.988 9.45442 136.585 10.3453C138.185 11.2105 139.484 12.5494 140.305 14.1816C141.189 15.8196 141.631 17.745 141.631 19.9577C141.631 22.1705 141.189 24.1102 140.305 25.7769C139.484 27.4091 138.185 28.7481 136.585 29.6133C134.988 30.5042 133.12 30.9496 130.982 30.9496ZM130.939 26.7684C132.678 26.7684 134.004 26.1936 134.917 25.0442C135.829 23.8947 136.285 22.1992 136.285 19.9577C136.285 17.745 135.829 16.0639 134.917 14.9144C134.004 13.7362 132.693 13.1471 130.982 13.1471C129.271 13.1471 127.945 13.7362 127.005 14.9144C126.092 16.0639 125.636 17.745 125.636 19.9577C125.636 22.1992 126.092 23.8947 127.005 25.0442C127.917 26.1936 129.228 26.7684 130.939 26.7684ZM163.751 9.09521C164.549 9.09521 165.19 9.3251 165.675 9.78489C166.16 10.2447 166.402 10.8625 166.402 11.6384V28.665C166.402 31.9697 165.49 34.4698 163.665 36.1653C161.84 37.8608 159.146 38.7085 155.582 38.7085C152.474 38.7085 149.879 38.1194 147.798 36.9412C146.743 36.309 146.216 35.5475 146.216 34.6566C146.216 34.0244 146.358 33.5215 146.643 33.1479C146.957 32.7744 147.356 32.5876 147.841 32.5876C148.097 32.5876 148.411 32.6451 148.782 32.76C149.152 32.9037 149.537 33.0617 149.936 33.2342C150.963 33.6652 151.875 33.9957 152.674 34.2256C153.5 34.4555 154.441 34.5704 155.496 34.5704C159.231 34.5704 161.099 32.7313 161.099 29.0529V26.2942C160.472 27.4724 159.559 28.392 158.362 29.0529C157.164 29.6852 155.796 30.0013 154.256 30.0013C152.431 30.0013 150.806 29.5702 149.38 28.7081C147.983 27.8173 146.886 26.5816 146.087 25.0011C145.289 23.4205 144.89 21.5957 144.89 19.5267C144.89 17.4576 145.275 15.6328 146.045 14.0523C146.843 12.4431 147.955 11.2074 149.38 10.3453C150.806 9.45442 152.431 9.009 154.256 9.009C155.796 9.009 157.164 9.33947 158.362 10.0004C159.528 10.602 160.484 11.5499 161.099 12.7161V11.5953C161.099 10.8482 161.341 10.2447 161.826 9.78489C162.311 9.3251 162.952 9.09521 163.751 9.09521ZM155.667 25.8201C157.378 25.8201 158.704 25.2597 159.645 24.1389C160.614 23.0182 161.099 21.4808 161.099 19.5267C161.099 17.5438 160.614 15.9921 159.645 14.8713C158.704 13.7506 157.378 13.1902 155.667 13.1902C153.985 13.1902 152.659 13.7506 151.69 14.8713C150.721 15.9921 150.236 17.5438 150.236 19.5267C150.236 21.4808 150.721 23.0182 151.69 24.1389C152.659 25.2597 153.985 25.8201 155.667 25.8201Z" fill="#9C9C9C"/>
</g>
<defs>
<clipPath id="clip0_5_38">
<rect width="167" height="39" fill="white"/>
</clipPath>
</defs>
</svg>
