<svg width="130" height="47" viewBox="0 0 130 47" fill="none" xmlns="http://www.w3.org/2000/svg">
<g clip-path="url(#clip0_5_40)">
<path d="M23.299 10.137L18.995 36.7371H12.8111L14.3823 27.1322H7.72144L6.18201 36.7371H0L4.33863 10.137H10.4879L8.6436 21.3681H15.3045L17.1506 10.137H23.299ZM35.9819 36.7371L36.1877 30.9373H30.4827L28.8086 36.7371H22.2833L31.0635 10.137H42.336L42.4735 36.7371H35.9819ZM34.5819 16.6023L31.8837 25.9863H36.3588L36.7339 16.6032L34.5819 16.6023ZM69.0057 10.137L64.7007 36.7371H58.5168L54.2137 22.1821L51.8906 36.738H45.7058L50.0444 10.137H56.3985L60.6352 23.7331L62.8545 10.137H69.0057ZM83.4319 10.137C86.4154 10.137 88.545 10.9501 89.8197 12.5753C90.754 13.8067 91.2198 15.3464 91.2198 17.1935C91.2198 17.8591 91.1637 18.5603 91.0505 19.2991L89.7178 27.5382C89.2623 30.3206 88.1456 32.5503 86.3696 34.2254C84.5926 35.9005 82.2928 36.7371 79.4674 36.7371H69.5266L73.8662 10.137H83.4319ZM81.279 15.901H79.0587L76.6336 30.973H79.8789C80.9488 30.973 81.7803 30.6647 82.3723 30.0499C82.9877 29.4088 83.4086 28.3748 83.6349 26.947L84.6272 20.8877C84.7132 20.3989 84.7591 19.9045 84.7637 19.4091C84.7637 17.0685 83.6031 15.901 81.279 15.901ZM109.529 36.7371H92.3795L96.72 10.137H113.87L112.913 15.901H101.913L101.127 20.8887H110.214L109.258 26.6509H100.17L99.4874 30.9739H110.488L109.529 36.7371ZM129.043 36.7371H113.465L117.804 10.137H123.954L120.572 30.9739H130L129.043 36.7371ZM68.7139 41.4709H128.143L126.286 47H66.8574L68.7139 41.4709ZM6.5 0H71.5L69.6426 5.52908H4.64259L6.5 0Z" fill="#9C9C9C"/>
</g>
<defs>
<clipPath id="clip0_5_40">
<rect width="130" height="47" fill="white"/>
</clipPath>
</defs>
</svg>
