<svg width="168" height="33" viewBox="0 0 168 33" fill="none" xmlns="http://www.w3.org/2000/svg">
<g clip-path="url(#clip0_5_42)">
<mask id="mask0_5_42" style="mask-type:luminance" maskUnits="userSpaceOnUse" x="0" y="0" width="168" height="33">
<path d="M0 0H168V33H0V0Z" fill="white"/>
</mask>
<g mask="url(#mask0_5_42)">
<path fill-rule="evenodd" clip-rule="evenodd" d="M11.0251 29.0746C10.9177 29.0737 10.8121 29.0482 10.7162 29.0002C10.6203 28.9522 10.5367 28.883 10.4718 28.7978C10.2875 28.5537 10.1631 28.2701 10.1083 27.9696C10.0207 27.587 9.95334 27.2001 9.9064 26.8105C9.85058 26.3088 9.82199 25.8045 9.82078 25.2998C9.80416 24.1907 9.80793 23.0814 9.83209 21.9724C9.84663 21.2915 9.85309 20.7603 9.85309 20.3771V7.6987C9.85309 7.07411 9.85713 6.59923 9.8644 6.27326C9.87167 5.94728 9.8967 5.57865 9.9379 5.16736C9.96213 4.8615 10.0154 4.55887 10.0986 4.26348C10.1794 4.0357 10.2868 3.81838 10.4177 3.61475C10.5388 3.40145 10.7149 3.22519 10.9289 3.10445C11.1777 2.9805 11.4337 2.87104 11.6954 2.77445C12.0326 2.64955 12.3822 2.56052 12.7382 2.50884C13.202 2.44136 13.6674 2.38447 14.1339 2.33821V1.16711L13.7704 0.804917H0.910319L0.569473 1.16711V2.16677C2.72763 2.29475 3.93432 2.90484 4.18955 3.99626C4.33817 4.91784 4.40924 5.84989 4.40278 6.78275V26.202C4.43849 27.2107 4.39555 28.2207 4.27436 29.2227C4.2154 29.3789 4.12897 29.5222 4.01913 29.6477C3.85466 29.8438 3.6808 30.0318 3.49817 30.2111C3.35346 30.3505 3.21495 30.496 3.08301 30.6474V31.3919C14.0571 31.3919 20.8498 31.4627 23.4611 31.6052L24.3778 28.5209L23.8027 28.116C19.5624 28.6481 15.2977 28.9676 11.0259 29.0738L11.0251 29.0746ZM31.4241 20.184C31.3825 20.1956 31.3397 20.2026 31.2965 20.2049C31.0841 20.2049 30.9775 20.1276 30.9775 19.9715C30.9783 19.2664 31.0316 18.5621 31.1374 17.8651C31.2569 17.1053 31.4564 16.36 31.7335 15.6428C32.0005 14.9157 32.3665 14.2286 32.8214 13.6009C33.3036 12.9623 33.9297 12.4457 34.6492 12.0928C35.3687 11.7398 36.1614 11.5606 36.9633 11.5694C37.542 11.5374 38.119 11.6559 38.6379 11.9133C39.1567 12.1706 39.5995 12.5581 39.9227 13.0375C40.594 14.0289 40.9436 15.2019 40.9242 16.3978C40.9214 16.617 40.8515 16.8302 40.7239 17.0088C40.5963 17.1874 40.4171 17.323 40.2102 17.3975C39.0442 17.8657 37.8535 18.2706 36.6434 18.6104C34.9416 19.1095 33.2453 19.6273 31.555 20.1638C31.5107 20.1657 31.4669 20.1724 31.4241 20.184ZM44.0726 26.8202C41.5162 28.3656 39.3088 29.1382 37.4511 29.1382C36.1926 29.1655 34.9569 28.8011 33.9159 28.0959C32.9474 27.4483 32.1774 26.5467 31.6907 25.4905C31.2114 24.4314 30.9681 23.2814 30.9775 22.1197C40.2619 19.2415 44.9465 17.8015 45.0313 17.8015C45.4 17.7264 45.7295 17.522 45.9599 17.2254C46.1904 16.9289 46.3065 16.5599 46.2873 16.1853C46.3126 15.1412 46.0669 14.1082 45.5741 13.1864C45.1241 12.3619 44.458 11.6745 43.6469 11.1975C42.8286 10.7188 41.9418 10.3674 41.0171 10.1552C40.0141 9.92889 38.9883 9.81816 37.96 9.82519C36.1152 9.79668 34.2857 10.1631 32.5953 10.8997C31.1048 11.5413 29.7879 12.5254 28.7523 13.7715C27.7759 14.9764 27.0225 16.3449 26.5271 17.8128C26.0134 19.3232 25.7541 20.908 25.7598 22.5028C25.7598 25.7787 26.6482 28.2319 28.4219 29.8626C30.026 31.3517 32.2908 32.0954 35.2146 32.0954C36.8911 32.0782 38.5412 31.6781 40.0382 30.9259C41.8409 30.0311 43.5677 28.9921 45.2017 27.819L44.7357 26.9916L44.0726 26.8202ZM72.7529 4.39226C72.1824 2.90709 71.0619 1.69658 69.6223 1.01016C67.8391 0.262549 65.9129 -0.0858456 63.9798 -0.010424C62.5691 -0.0184879 61.1631 0.152997 59.7959 0.499869C58.5242 0.82255 57.3102 1.33921 56.1969 2.03155C55.1064 2.71662 54.2145 3.67388 53.6098 4.80838C52.9534 6.04932 52.6235 7.43589 52.6511 8.8384C52.6504 9.84237 52.8951 10.8314 53.3643 11.7199C53.8124 12.5992 54.4188 13.389 55.1533 14.05C55.9432 14.7443 56.7828 15.3805 57.6652 15.9535C58.551 16.5416 59.4683 17.0812 60.413 17.5697C61.3011 18.0246 62.1747 18.5073 63.0324 19.0169C63.7431 19.4177 64.4103 19.8918 65.0233 20.4311C66.5983 21.8919 67.3866 23.2811 67.3866 24.6003C67.3837 25.3011 67.2367 25.9938 66.9547 26.6357C66.6727 27.2776 66.2617 27.8551 65.747 28.3326C65.2361 28.8566 64.6232 29.2713 63.9459 29.5511C63.2686 29.831 62.5411 29.9701 61.8079 29.96C60.9506 29.9845 60.0991 29.8133 59.3185 29.4594C58.5379 29.1054 57.8489 28.5782 57.3042 27.918C56.174 26.6283 55.5568 24.9708 55.5693 23.2586L54.7398 22.9608L50.5026 27.7039C51.471 29.1005 52.7839 30.2251 54.3149 30.9693C55.8717 31.7304 57.5847 32.1203 59.3186 32.1082C60.9007 32.1003 62.4727 31.8561 63.9822 31.3838C65.5002 30.9284 66.9478 30.2662 68.284 29.4159C69.5542 28.6076 70.6329 27.5338 71.4453 26.2688C72.2416 25.066 72.6672 23.6573 72.6698 22.2163C72.6761 21.443 72.5392 20.6751 72.2659 19.9514C72.0131 19.2792 71.6614 18.6483 71.2224 18.0792C70.7056 17.4474 70.1076 16.8862 69.4438 16.4099C68.7186 15.8649 67.9612 15.3636 67.1758 14.9088C66.2358 14.375 65.2846 13.8609 64.3231 13.3666C63.6526 13.0428 62.9921 12.6987 62.3426 12.3348C61.7284 11.9771 61.1306 11.5919 60.5511 11.1806C59.957 10.7748 59.4141 10.2992 58.9341 9.76401C58.5123 9.26459 58.1677 8.70521 57.9116 8.10436C57.6274 7.45736 57.4824 6.75818 57.4859 6.05192C57.4728 5.4743 57.5762 4.89993 57.7898 4.36282C58.0035 3.82571 58.3231 3.33677 58.7298 2.92497C59.1596 2.49689 59.6739 2.16245 60.2402 1.94285C60.8065 1.72325 61.4124 1.62326 62.0195 1.64923C62.7715 1.61687 63.5214 1.75069 64.2154 2.0411C64.9094 2.33151 65.5304 2.77133 66.0337 3.32902C67.0423 4.46656 67.6776 5.88433 67.8543 7.39204L68.5998 7.62545L72.7529 4.39226ZM93.4606 12.5497C93.0802 11.8858 92.529 11.3351 91.8638 10.9544C91.2054 10.5795 90.495 10.3037 89.7557 10.1359C88.9623 9.96054 88.1517 9.87494 87.3391 9.88072C85.7891 9.85899 84.248 10.1222 82.7926 10.6574C81.5442 11.1092 80.4 11.8073 79.4285 12.7099C78.5257 13.5815 77.777 14.5986 77.2138 15.7185C76.635 16.8451 76.2088 18.0433 75.9466 19.2817C75.6879 20.5342 75.5595 21.81 75.5637 23.0888C75.5589 24.1754 75.7131 25.2571 76.0209 26.2986C76.3197 27.3071 76.7841 28.2593 77.3939 29.1173C78.037 30.0023 78.8994 30.7059 79.897 31.1593C81.0423 31.6808 82.2902 31.9392 83.5486 31.9143C87.5378 31.9143 91.2854 30.1628 94.7916 26.6608L94.366 26.0435L93.8337 25.9163C91.2362 27.9156 88.8365 28.9153 86.6364 28.9153C85.8127 28.9285 84.9981 28.7423 84.2626 28.3728C83.5957 28.0429 83.0152 27.5625 82.5672 26.9699C82.1224 26.3607 81.7607 25.6954 81.4914 24.9915C81.2118 24.2886 81.0085 23.5579 80.8848 22.8119C80.7717 22.1084 80.7152 21.3969 80.7144 20.6846C80.7192 19.7791 80.7976 18.876 80.9486 17.9834C81.1158 16.9894 81.3654 16.0115 81.6941 15.0585C81.9926 14.1272 82.5111 13.2809 83.2061 12.5907C83.512 12.2819 83.8768 12.0372 84.2791 11.871C84.6814 11.7049 85.113 11.6206 85.5484 11.6233C86.1302 11.5913 86.7095 11.7217 87.221 11.9999C87.7325 12.278 88.1561 12.6928 88.444 13.1976C89.1024 14.3797 89.4262 15.7179 89.3809 17.0691L90.1264 17.3669L94.1511 14.9853C94.1181 14.1303 93.8814 13.2955 93.4606 12.5497ZM101.265 18.8776C101.374 18.0422 101.563 17.2196 101.83 16.4212C102.075 15.6445 102.422 14.9048 102.862 14.2198C103.285 13.5853 103.85 13.0574 104.513 12.6777C105.228 12.2666 106.041 12.0571 106.866 12.0716C107.761 12.0489 108.643 12.2812 109.41 12.7413C110.123 13.1834 110.695 13.8177 111.06 14.5707C111.445 15.3491 111.724 16.1749 111.89 17.0272C112.065 17.9448 112.151 18.8785 112.146 19.8137C112.146 20.6645 112.138 21.3736 112.124 21.9402C112.101 22.6228 112.052 23.3043 111.975 23.983C111.912 24.651 111.795 25.3118 111.624 25.9606C111.457 26.532 111.239 27.0874 110.975 27.6202C110.731 28.1477 110.379 28.6184 109.942 29.0022C109.49 29.3696 108.979 29.6574 108.43 29.853C107.764 30.0903 107.061 30.2057 106.354 30.1934C105.575 30.2029 104.813 29.9724 104.171 29.5334C103.544 29.1153 103.024 28.5586 102.649 27.9068C102.255 27.2052 101.948 26.4591 101.733 25.6845C101.507 24.9222 101.343 24.143 101.243 23.3544C101.16 22.6733 101.118 21.988 101.115 21.3019C101.115 20.4915 101.165 19.6819 101.265 18.8776ZM98.6249 29.8747C100.172 31.2784 102.628 31.9803 105.993 31.9803C107.237 31.9883 108.477 31.8458 109.687 31.5545C110.825 31.2725 111.91 30.8094 112.9 30.183C113.895 29.5573 114.765 28.753 115.466 27.811C116.233 26.7428 116.802 25.5472 117.149 24.28C117.578 22.7433 117.786 21.1536 117.766 19.5586C117.808 18.2743 117.568 16.9965 117.064 15.8138C116.561 14.631 115.805 13.5716 114.849 12.7091C113.074 11.1218 110.497 10.3274 107.119 10.3274C103.741 10.3274 100.958 11.3697 98.7719 13.4544C97.6985 14.4654 96.8515 15.6909 96.2864 17.0508C95.7213 18.4107 95.4508 19.8741 95.4927 21.3454C95.4927 25.146 96.5354 27.9889 98.6225 29.8747H98.6249ZM131.949 13.0286C133.084 13.0286 133.894 13.2556 134.377 13.7095C134.827 14.2568 135.111 14.9217 135.196 15.6251C135.374 16.4542 135.485 17.2977 135.526 18.1452C135.554 18.8897 135.569 19.8507 135.569 21.0275C135.568 22.5555 135.557 24.0834 135.537 25.6113C135.53 26.0716 135.533 26.6141 135.547 27.2387C135.551 27.7039 135.579 28.1692 135.633 28.6312C135.675 28.937 135.732 29.2702 135.803 29.6308C135.852 29.9335 135.953 30.224 136.101 30.492C136.229 30.7053 136.385 30.8993 136.568 31.0675C137.207 31.6452 138.047 31.9503 138.909 31.9175C139.975 31.9175 141.195 31.3782 142.572 30.3013C143.721 29.3488 144.816 28.3331 145.852 27.2588L145.362 26.5345H144.851C144.018 27.2003 143 27.594 141.934 27.6621C141.709 27.675 141.483 27.642 141.27 27.5652C141.058 27.4884 140.863 27.3694 140.698 27.2154C140.551 27.0996 140.425 26.9597 140.325 26.8017C140.208 26.5234 140.133 26.2294 140.102 25.9292C140.021 25.3194 139.985 24.7043 139.996 24.0892C139.996 23.6216 140.021 22.8658 140.07 21.8243C140.11 21.0838 140.135 20.3427 140.145 19.6012V18.3247C140.159 16.9492 140.156 15.9962 140.135 15.4634C140.092 14.7364 140.01 14.0123 139.889 13.2942C139.836 12.6171 139.609 11.9651 139.229 11.4011C138.854 10.9959 138.406 10.6642 137.909 10.4232C137.233 10.0973 136.487 9.94014 135.737 9.96523C133.239 9.96523 130.342 10.9866 127.049 13.0286L126.538 12.837C126.51 12.0549 126.255 11.2977 125.804 10.6574C125.385 10.1101 124.664 9.83806 123.642 9.83806C123.03 9.84575 122.423 9.94979 121.843 10.1463C121.168 10.3717 120.525 10.6792 119.925 11.0607C119.279 11.4655 118.719 11.8414 118.243 12.1883C117.767 12.5352 117.217 12.957 116.593 13.4536L117.38 14.4959C117.525 14.4025 117.671 14.3105 117.817 14.2198C118.065 14.0637 118.282 13.9365 118.467 13.8367C118.651 13.7377 118.871 13.621 119.127 13.4858C119.355 13.3618 119.594 13.258 119.841 13.1751C120.029 13.1107 120.226 13.0745 120.425 13.0688C120.672 13.0632 120.915 13.1252 121.128 13.2499C121.345 13.3924 121.508 13.6017 121.595 13.8456C121.702 14.1031 121.794 14.3647 121.871 14.6319C121.958 14.9917 122.008 15.3587 122.021 15.7282C122.05 16.2111 122.067 16.6006 122.072 16.8976C122.079 17.1946 122.082 17.6414 122.083 18.2378V18.6C122.083 19.9892 121.976 24.243 121.764 31.3613L122.296 31.6591L127.087 30.2763C126.945 29.667 126.838 27.7458 126.767 24.5134C126.697 21.3515 126.662 18.189 126.664 15.0263C129.134 13.6934 130.894 13.027 131.945 13.027L131.949 13.0286ZM152.604 20.2806C152.562 20.2929 152.519 20.3005 152.476 20.3031C152.264 20.3031 152.157 20.225 152.156 20.0697C152.157 19.3638 152.21 18.6603 152.317 17.9633C152.437 17.2035 152.636 16.4582 152.912 15.7402C153.18 15.0134 153.545 14.3261 153.999 13.6983C154.481 13.0595 155.107 12.5427 155.826 12.1898C156.546 11.8369 157.339 11.6577 158.141 11.6667C158.719 11.6347 159.296 11.7532 159.815 12.0105C160.334 12.2679 160.777 12.6554 161.1 13.1348C161.771 14.1262 162.121 15.2993 162.101 16.4952C162.098 16.7142 162.028 16.9272 161.9 17.1057C161.773 17.2842 161.594 17.42 161.387 17.4949C160.222 17.9629 159.031 18.3678 157.822 18.7078C156.119 19.2068 154.423 19.7246 152.732 20.2612C152.689 20.2636 152.646 20.2703 152.605 20.2814L152.604 20.2806ZM165.252 26.9176C162.696 28.4637 160.489 29.2364 158.63 29.2356C157.372 29.2627 156.136 28.8987 155.095 28.1941C154.127 27.5463 153.357 26.6447 152.87 25.5887C152.391 24.5292 152.147 23.3786 152.156 22.2163C161.441 19.3388 166.125 17.8997 166.211 17.8997C166.58 17.8242 166.909 17.6196 167.14 17.323C167.37 17.0264 167.486 16.6573 167.467 16.2827C167.492 15.2386 167.247 14.2056 166.754 13.2837C166.304 12.4593 165.638 11.7719 164.827 11.2949C164.008 10.8164 163.121 10.4649 162.197 10.2526C161.194 10.0262 160.167 9.91548 159.139 9.92258C157.295 9.89422 155.466 10.2606 153.776 10.9971C152.285 11.6386 150.968 12.6227 149.933 13.8689C148.956 15.0736 148.203 16.4421 147.708 17.9102C147.194 19.4206 146.935 21.0054 146.941 22.6002C146.941 25.8761 147.828 28.3285 149.602 29.96C151.207 31.449 153.47 32.1927 156.395 32.1927C158.072 32.1756 159.722 31.7755 161.219 31.0233C163.021 30.1284 164.748 29.0896 166.382 27.9172L165.916 27.089L165.252 26.9176Z" fill="#9C9C9C"/>
</g>
</g>
<defs>
<clipPath id="clip0_5_42">
<rect width="168" height="33" fill="white"/>
</clipPath>
</defs>
</svg>
