<svg width="145" height="36" viewBox="0 0 145 36" fill="none" xmlns="http://www.w3.org/2000/svg">
<g clip-path="url(#clip0_5_48)">
<path d="M47.6384 35.52V0H38.8443L20.4568 27.408L17.353 23.424C22.9022 22.56 26.0059 17.568 26.0059 12.24C26.0059 7.152 23.2784 2.88 19.6103 1.248C17.7762 0.432 15.0486 0 11.4276 0H0V35.52H8.51189V24.048H8.60595L16.6476 35.52H25.6297L28.6865 30.384H38.7503V35.52H47.6384ZM8.51189 17.856V7.968H11.8978C15.2368 7.968 17.4941 9.696 17.4941 12.768C17.4941 16.032 15.3778 17.856 11.8508 17.856H8.51189ZM38.7503 23.184H32.9189L38.6562 13.344H38.7503V23.184ZM83.3064 35.52V0H74.7945L75.1707 22.464L61.627 0H53.9616V35.52H62.4734L62.2383 13.824L75.594 35.52H83.3064ZM108.973 35.52V27.552H98.1572V21.456H108.644V13.488H98.1572V7.968H108.973V0H89.6453V35.52H108.973ZM144.304 35.52L132.03 17.712L143.552 0H134.241L124.412 15.984H124.318V0H115.43V35.52H124.318V20.16H124.412L133.911 35.52H144.304Z" fill="#9C9C9C"/>
</g>
<defs>
<clipPath id="clip0_5_48">
<rect width="145" height="36" fill="white"/>
</clipPath>
</defs>
</svg>
