<svg width="170" height="41" viewBox="0 0 170 41" fill="none" xmlns="http://www.w3.org/2000/svg">
<g clip-path="url(#clip0_5_50)">
<path d="M46.2238 36.8281C43.4018 36.8281 41.2386 36.3528 39.7332 35.4023C38.2542 34.425 37.5156 32.9984 37.5156 31.1232C37.5156 30.1727 37.8386 29.3929 38.4829 28.7854C39.1552 28.152 40.0154 27.8349 41.0635 27.8349C41.6814 27.8616 42.1515 28.019 42.4745 28.3101C42.7975 28.5745 42.959 28.8256 42.959 29.0632C42.959 29.0891 42.8238 29.182 42.5552 29.3402C42.2866 29.4991 42.0452 29.7368 41.8293 30.0531C41.6143 30.371 41.5063 30.8061 41.5063 31.3609C41.5063 32.6026 41.8837 33.5665 42.636 34.2535C43.4154 34.9137 44.6114 35.2433 46.2238 35.2433C47.3263 35.2433 48.2936 35.0325 49.1274 34.6099C49.9604 34.1874 50.592 33.6326 51.0221 32.9457C51.4785 32.2328 51.7072 31.4931 51.7072 30.7266C51.7072 29.7761 51.425 28.9578 50.8606 28.2708C50.3124 27.575 49.6269 26.9955 48.8452 26.5672C48.0377 26.092 46.9361 25.5498 45.5387 24.9423C43.9263 24.2294 42.6232 23.5826 41.6287 23.0011C40.6294 22.4163 39.764 21.6339 39.0872 20.7034C38.3894 19.7261 38.04 18.5245 38.04 17.0979C38.04 14.8002 38.8322 13.0832 40.4183 11.9478C42.0316 10.8115 44.1413 10.2442 46.7483 10.2442C48.7908 10.2442 50.5648 10.6668 52.0701 11.5119C53.6027 12.357 54.3685 13.5987 54.3685 15.2353C54.3685 16.1867 54.0319 16.9791 53.3604 17.6133C52.7153 18.2208 51.8687 18.5245 50.8206 18.5245C50.2018 18.4978 49.7318 18.3522 49.4096 18.0886C49.0866 17.7982 48.9251 17.5338 48.9251 17.2962C48.9251 17.2694 49.1002 17.1774 49.4496 17.0184C49.8261 16.8603 50.1483 16.6226 50.4169 16.3055C50.7127 15.9884 50.8606 15.5524 50.8606 14.9985C50.8606 14.0212 50.4713 13.2548 49.6918 12.7C48.9387 12.1453 47.9714 11.8683 46.7882 11.8683C45.1494 11.8683 43.8991 12.2515 43.0397 13.0171C42.2059 13.7568 41.7894 14.6814 41.7894 15.7909C41.7894 16.7147 42.0444 17.4945 42.5552 18.1279C43.0652 18.7354 43.8855 19.3429 45.0143 19.9503C45.9931 20.457 46.9881 20.9327 47.9978 21.377C49.7182 22.1426 51.0756 22.8429 52.0701 23.4772C53.0941 24.1137 53.9616 24.9662 54.6099 25.9731C55.3086 27.0023 55.6588 28.2842 55.6588 29.8154C55.6588 31.1366 55.2287 32.3382 54.3685 33.4218C53.5355 34.4777 52.3923 35.3094 50.9413 35.9169C49.5167 36.5244 47.9442 36.8281 46.2238 36.8281ZM66.6349 36.5118C64.8074 36.5118 63.3556 35.9696 62.2803 34.8869C61.2051 33.8041 60.6679 32.3775 60.6679 30.6078V23.278C60.6679 22.5919 60.6407 22.0899 60.5871 21.7727C60.5608 21.4564 60.3993 21.1786 60.1026 20.941C59.8077 20.7034 59.3104 20.5846 58.6117 20.5846C58.2887 20.5846 58.0473 20.5452 57.8858 20.4658C57.7243 20.3603 57.6444 20.1352 57.6444 19.7922C57.6444 19.6332 57.698 19.4884 57.8059 19.3571C57.913 19.1981 58.0745 19.1061 58.2896 19.0793C59.9828 18.8408 61.4346 18.4978 62.6433 18.0484C63.0198 17.9171 63.3284 17.8376 63.5706 17.8108H63.6913C64.1214 17.8108 64.3373 18.0618 64.3373 18.5639V30.5685C64.3373 31.7834 64.7266 32.7214 65.5061 33.3816C66.2617 34.007 67.2203 34.3443 68.2074 34.3321C69.4705 34.3321 70.5449 34.0284 71.4323 33.4209C72.3197 32.8134 72.9113 32.206 73.2062 31.5985V23.2789C73.2062 22.5919 73.1799 22.0907 73.1263 21.7727C73.0991 21.4564 72.9376 21.1786 72.6418 20.941C72.346 20.7034 71.8488 20.5846 71.1501 20.5846C70.8271 20.5846 70.5857 20.5452 70.425 20.4658C70.2635 20.3603 70.1828 20.1352 70.1828 19.7922C70.1828 19.6332 70.2363 19.4884 70.3443 19.3571C70.4514 19.1981 70.6129 19.1061 70.8279 19.0793C72.5211 18.8408 73.9729 18.4978 75.1825 18.0484C75.5582 17.9171 75.8676 17.8376 76.109 17.8108H76.2305C76.6606 17.8108 76.8757 18.0618 76.8757 18.5639V32.2729C76.8757 33.8318 77.9373 34.6108 80.0606 34.6108C80.5171 34.6108 80.7457 34.8618 80.7457 35.3638C80.7457 35.7328 80.5171 35.9579 80.0606 36.0365L73.5692 36.4725C73.3813 36.4725 73.2734 36.4064 73.2462 36.275C73.2207 36.1688 73.2062 35.9713 73.2062 35.6809V33.4611H73.1263C72.5093 34.0316 71.8772 34.5863 71.2308 35.1245C70.7472 35.4943 70.1156 35.8115 69.3353 36.0759C68.5831 36.3662 67.6829 36.511 66.6349 36.511V36.5118ZM82.9515 36.1554C82.8575 36.1549 82.765 36.1332 82.6809 36.0919C82.5969 36.0505 82.5237 35.9906 82.467 35.9169C82.3599 35.7588 82.3055 35.5738 82.3055 35.363C82.3327 35.0199 82.4134 34.8208 82.5477 34.7689C82.6829 34.6894 82.9243 34.6492 83.2736 34.6492C83.9723 34.6492 84.4696 34.5304 84.7654 34.2928C85.0612 34.0552 85.2227 33.7774 85.249 33.4611C85.3034 33.1431 85.3298 32.6419 85.3298 31.955V22.8822C85.3298 22.1961 85.3034 21.6941 85.249 21.3761C85.2227 21.0598 85.0612 20.782 84.7654 20.5452C84.4696 20.3076 83.9723 20.188 83.2736 20.188C82.9506 20.188 82.7092 20.1486 82.5486 20.0691C82.3871 19.9637 82.3063 19.7395 82.3063 19.3956C82.3063 19.2374 82.3599 19.0918 82.4678 18.9605C82.5749 18.8015 82.7364 18.7094 82.9515 18.6827C84.6982 18.4183 86.1364 18.0752 87.2652 17.6526C87.7225 17.5204 88.0311 17.441 88.1926 17.415H88.3133C88.7434 17.415 88.9584 17.666 88.9584 18.1681V20.6239H89.0791C90.0201 19.6993 90.9746 18.973 91.9419 18.445C92.9101 17.8903 93.783 17.6133 94.5625 17.6133C95.4499 17.6133 96.1486 17.943 96.6594 18.6032C97.1966 19.2374 97.4652 19.9771 97.4652 20.8222C97.4652 21.5619 97.2374 22.2221 96.7801 22.8028C96.3228 23.3843 95.6913 23.6746 94.8855 23.6746C94.5344 23.6807 94.1876 23.5989 93.8774 23.437C93.6088 23.278 93.4609 23.1467 93.4337 23.0412C93.4609 22.9885 93.5952 22.8295 93.8366 22.5651C94.0788 22.2748 94.1995 21.9451 94.1995 21.5753C94.1995 21.0992 94.0652 20.7168 93.7966 20.4264C93.5544 20.1352 93.2186 19.9905 92.7885 19.9905C92.3321 19.9905 91.7541 20.2147 91.0554 20.6641C90.3558 21.0866 89.6707 21.628 88.9992 22.2882V31.955C88.9992 32.6419 89.0256 33.1431 89.0791 33.4611C89.1335 33.7774 89.3078 34.0552 89.6036 34.2928C89.8994 34.5304 90.3966 34.6492 91.0953 34.6492H91.3376C91.5526 34.6492 91.7133 34.6894 91.8212 34.7681C91.9283 34.8475 91.9955 35.0459 92.0227 35.3621C92.0227 35.5738 91.9691 35.7588 91.8612 35.9169C91.7541 36.0759 91.5926 36.1554 91.3775 36.1554C89.9678 36.08 88.5564 36.0401 87.1445 36.0357C85.935 36.0357 84.5376 36.0767 82.9515 36.1554ZM145.568 36.5118C143.741 36.5118 142.115 36.0884 140.69 35.2433C139.266 34.3723 138.15 33.236 137.344 31.8361C136.575 30.4511 136.173 28.8977 136.175 27.3194C136.175 25.3389 136.645 23.6219 137.586 22.1693C138.527 20.69 139.723 19.5671 141.174 18.8015C142.626 18.0091 144.09 17.6133 145.568 17.6133C147.397 17.6133 149.023 18.0484 150.447 18.9203C151.845 19.7375 152.988 20.9159 153.753 22.3275C154.549 23.689 154.966 25.2331 154.963 26.804C154.963 28.7854 154.479 30.5158 153.512 31.9951C152.571 33.4477 151.375 34.5698 149.923 35.3621C148.472 36.1286 147.02 36.5118 145.568 36.5118ZM145.568 35.0459C147.397 35.0459 148.727 34.2794 149.56 32.7473C150.42 31.2161 150.85 29.2347 150.85 26.8049C150.85 24.5331 150.407 22.6848 149.52 21.2573C148.66 19.8056 147.342 19.0793 145.568 19.0793C143.715 19.0793 142.371 19.8323 141.537 21.3376C140.704 22.8429 140.287 24.8101 140.287 27.2408C140.287 29.5117 140.717 31.3876 141.578 32.8662C142.438 34.3196 143.768 35.0459 145.568 35.0459ZM165.122 36.7093C163.804 36.7093 162.676 36.234 161.735 35.2835C160.794 34.3321 160.324 32.9724 160.324 31.2027V19.5545L157.985 19.634C157.907 19.6347 157.83 19.617 157.76 19.5826C157.69 19.5481 157.629 19.4978 157.582 19.4357C157.477 19.284 157.42 19.1043 157.421 18.9203C157.421 18.6827 157.462 18.4852 157.542 18.3262C157.649 18.1413 157.797 18.0359 157.985 18.0091C158.926 17.825 159.652 17.5338 160.163 17.1381C160.7 16.7147 161.09 16.2662 161.332 15.7909C161.574 15.2889 161.87 14.5358 162.219 13.5317C162.353 13.1887 162.649 13.0171 163.106 13.0171C163.294 13.0171 163.482 13.0699 163.67 13.1761C163.858 13.2548 163.952 13.387 163.952 13.5719L163.67 18.0886L168.388 17.8108H168.468C168.818 17.8108 168.992 18.0618 168.992 18.5639C168.992 18.8542 168.938 19.132 168.83 19.3956C168.75 19.634 168.643 19.7529 168.508 19.7529L163.993 19.634V31.678C163.993 32.5499 164.167 33.2762 164.517 33.8569C164.893 34.4384 165.498 34.7287 166.331 34.7287C167.164 34.7287 167.904 34.5831 168.548 34.2928C168.898 34.1606 169.113 34.0945 169.193 34.0945C169.382 34.0945 169.53 34.174 169.637 34.3321C169.745 34.4643 169.852 34.6501 169.96 34.8869C169.989 34.9491 170.002 35.0169 170 35.0852C170 35.1906 169.919 35.3094 169.758 35.4416C168.978 35.9437 168.24 36.2742 167.541 36.4323C166.869 36.6164 166.062 36.7093 165.122 36.7093ZM99.9574 35.9169C100.065 36.0759 100.226 36.1545 100.441 36.1545C101.837 36.0791 103.236 36.0394 104.634 36.0357C106.435 36.0357 108.115 36.0759 109.674 36.1545C109.762 36.1565 109.85 36.1356 109.928 36.0939C110.006 36.0522 110.071 35.9912 110.118 35.9169C110.225 35.7579 110.278 35.5738 110.278 35.3621C110.252 35.0459 110.185 34.8475 110.077 34.7681C109.996 34.6894 109.835 34.6492 109.593 34.6492H109.351C108.464 34.6492 107.833 34.5831 107.456 34.4509C107.08 34.3196 106.825 34.0811 106.69 33.738C106.556 33.3682 106.489 32.7741 106.489 31.9558V19.6324H110.763C110.856 19.6319 110.949 19.6103 111.033 19.569C111.116 19.5278 111.19 19.4682 111.246 19.3947C111.381 19.2366 111.448 19.0517 111.448 18.84C111.421 18.5237 111.34 18.3254 111.205 18.2459C111.098 18.1405 110.923 18.0869 110.682 18.0869H106.489V15.7106C106.489 14.4429 106.542 13.3334 106.649 12.3821C106.75 11.427 107.067 10.5062 107.577 9.68777C108.088 8.86945 108.881 8.46028 109.956 8.46028C110.079 8.46028 110.199 8.46698 110.315 8.4812C110.3 8.03734 110.329 7.59309 110.403 7.15498C110.348 7.15349 110.293 7.15265 110.238 7.15247C107.873 7.20518 106.032 8.08961 104.715 9.80742C103.425 11.4976 102.779 13.7033 102.779 16.4235V18.0878H100.36C100.011 18.0878 99.7687 18.1271 99.6344 18.2066C99.5001 18.2593 99.4194 18.471 99.393 18.84C99.393 19.0517 99.4466 19.2366 99.5537 19.3947C99.6888 19.5537 99.8631 19.6332 100.078 19.6332H102.779V31.955C102.779 32.6687 102.752 33.1833 102.699 33.5004C102.672 33.7908 102.511 34.0552 102.215 34.2928C101.919 34.5304 101.422 34.6492 100.723 34.6492C100.374 34.6492 100.132 34.6894 99.9974 34.7681C99.8903 34.8208 99.8231 35.0191 99.7959 35.3621C99.7959 35.5738 99.8495 35.7588 99.9574 35.9169Z" fill="#9C9C9C"/>
<path fill-rule="evenodd" clip-rule="evenodd" d="M121.509 8.25431C121.509 8.83283 121.392 9.40559 121.167 9.93987C120.942 10.4741 120.611 10.9595 120.195 11.3682C119.78 11.7769 119.286 12.1009 118.743 12.3218C118.2 12.5427 117.617 12.6561 117.03 12.6555C115.843 12.6564 114.704 12.1933 113.864 11.3679C113.024 10.5426 112.552 9.42263 112.55 8.25431C112.551 7.67567 112.667 7.10279 112.892 6.56836C113.118 6.03394 113.448 5.54845 113.864 5.1396C114.28 4.73075 114.773 4.40656 115.317 4.18553C115.86 3.9645 116.442 3.85097 117.03 3.85141C117.618 3.85086 118.2 3.96432 118.743 4.18531C119.286 4.4063 119.78 4.73049 120.196 5.13936C120.612 5.54822 120.942 6.03376 121.167 6.56823C121.393 7.10271 121.509 7.67564 121.509 8.25431ZM117.03 10.4549C117.324 10.4552 117.615 10.3986 117.886 10.2882C118.158 10.1777 118.405 10.0157 118.613 9.81136C118.821 9.60701 118.986 9.36432 119.098 9.09715C119.211 8.82999 119.269 8.54358 119.27 8.25431C119.269 7.96496 119.211 7.67847 119.099 7.41121C118.986 7.14394 118.821 6.90115 118.613 6.69671C118.405 6.49226 118.158 6.33017 117.886 6.2197C117.615 6.10922 117.324 6.05253 117.03 6.05286C116.436 6.05264 115.867 6.28428 115.447 6.6969C115.027 7.10953 114.791 7.66938 114.79 8.25347C114.791 8.83771 115.027 9.39777 115.447 9.81058C115.867 10.2234 116.436 10.4551 117.03 10.4549ZM115.066 14.5708V35.7988C115.066 36.0356 115.134 36.2205 115.269 36.3527C115.403 36.5117 115.591 36.5903 115.833 36.5903C116.074 36.5903 116.276 36.4849 116.437 36.274C116.599 36.0891 116.747 35.8113 116.881 35.4415C117.015 35.0717 117.136 34.7813 117.244 34.5696H117.445C119.192 35.864 121.262 36.5108 123.654 36.5108C125.267 36.5108 126.785 36.0883 128.21 35.2432C129.634 34.3981 130.763 33.2492 131.597 31.7958C132.456 30.3173 132.887 28.6932 132.887 26.9235C132.887 25.1271 132.511 23.5297 131.758 22.129C131.033 20.7032 130.025 19.5937 128.734 18.8013C127.444 18.009 126.006 17.6132 124.421 17.6132C123.452 17.6132 122.471 17.8107 121.477 18.2073C120.51 18.5771 119.636 19.1444 118.856 19.9109H118.736V14.6428C117.529 14.9511 116.259 14.9262 115.066 14.5708ZM127.243 32.9848C126.248 34.4382 124.931 35.1645 123.292 35.1645C122.432 35.1645 121.666 34.9796 120.993 34.6098C120.348 34.2399 119.824 33.804 119.421 33.302C119.044 32.774 118.816 32.2979 118.736 31.8762V21.417C119.891 20.2012 121.315 19.5937 123.01 19.5937C124.918 19.5937 126.355 20.3334 127.323 21.8128C128.291 23.2653 128.774 25.0216 128.774 27.0817C128.774 29.5383 128.264 31.5063 127.243 32.9848ZM10.7951 0.307001C11.0802 0.106998 11.4216 -0.000488281 11.7717 -0.000488281C12.1218 -0.000488281 12.4632 0.106998 12.7484 0.307001C20.0244 5.41443 23.3224 11.5368 23.5306 20.3217C23.6267 24.5162 23.2161 28.3569 21.9658 31.6745C20.6823 34.9947 18.4017 38.0613 15.0442 40.6518C14.8352 40.8117 14.5907 40.9208 14.3308 40.9703C14.0708 41.0197 13.8027 41.0081 13.5482 40.9363C12.5197 40.646 12.3446 39.4478 11.7717 38.7014C11.1988 39.4478 11.0254 40.6451 9.99521 40.9355C9.74082 41.0071 9.47286 41.0187 9.21308 40.9692C8.9533 40.9198 8.70901 40.8108 8.50006 40.651C5.14256 38.0613 2.86116 34.9947 1.57851 31.6745C0.329007 28.3569 -0.0823929 24.5162 0.0136571 20.3217C0.221057 11.5368 3.51906 5.41359 10.7951 0.307001ZM14.5572 36.8681C16.6584 34.9687 17.9249 32.8978 18.8191 30.5156C19.9453 27.6038 20.27 24.3857 20.1723 20.3987C20.0108 13.5483 18.3788 9.09104 13.4377 4.95255V17.0584C15.3698 17.5471 16.2368 19.4097 16.2368 21.4597C16.2368 23.5113 15.3698 25.3739 13.4377 25.8626V35.767C13.4377 35.767 14.3353 36.5811 14.5572 36.8681ZM8.95736 36.8681C6.85616 34.9687 5.61941 32.8978 4.72436 30.5156C3.59896 27.6038 3.27426 24.3857 3.37286 20.3987C3.53436 13.5626 5.15701 9.08602 10.0777 4.95255V17.0584C8.14561 17.5471 7.27776 19.4097 7.27776 21.4597C7.27776 23.5113 8.14476 25.3739 10.0777 25.8626V35.767C10.0777 35.767 9.17156 36.5912 8.95736 36.8681ZM11.7573 19.259C11.1638 19.2586 10.5945 19.4902 10.1745 19.9028C9.75451 20.3155 9.51818 20.8755 9.51751 21.4597C9.51751 22.6763 10.5205 23.6611 11.7573 23.6611C12.3507 23.6615 12.92 23.43 13.34 23.0173C13.76 22.6046 13.9963 22.0447 13.997 21.4605C13.997 20.2447 12.994 19.259 11.7573 19.259Z" fill="#9C9C9C"/>
</g>
<defs>
<clipPath id="clip0_5_50">
<rect width="170" height="41" fill="white"/>
</clipPath>
</defs>
</svg>
