<svg width="183" height="31" viewBox="0 0 183 31" fill="none" xmlns="http://www.w3.org/2000/svg">
<g clip-path="url(#clip0_5_53)">
<path d="M20.2084 30.0472C19.1129 30.0759 18.0276 29.8348 17.0526 29.3461C16.0829 28.8607 15.2558 28.1422 14.6493 27.2581C12.7399 28.9709 10.266 29.9601 7.6748 30.0472C3.01857 30.0472 0.494847 26.8888 1.34729 22.361C1.99526 18.9565 4.89432 15.5447 5.70474 12.8057C4.13617 11.8867 1.80759 11.2466 0.716128 13.1248L0 12.7063C0.571408 10.6476 1.95231 9.27811 3.94757 9.27811C5.94283 9.27811 7.41804 10.4178 9.31993 9.36837H10.8371C10.0277 13.4695 7.98104 16.75 6.88958 22.4923C6.2248 26.0117 7.46098 27.611 9.55054 27.611C11.0941 27.4256 12.514 26.6925 13.5401 25.5513C12.7068 23.5487 12.2867 21.4052 12.3039 19.2437C12.3039 14.2563 14.6829 8.99911 18.6735 8.99911C20.7201 8.99911 22.2373 10.3686 22.2373 13.6172C22.2373 16.8649 20.1916 21.8933 17.582 25.0507C17.723 25.8029 18.1329 26.484 18.7398 26.9773C19.3466 27.4696 20.1132 27.7432 20.9077 27.7505C24.7106 27.7505 27.3706 22.2616 27.3706 17.1849C27.3706 12.1082 25.0859 12.3371 25.282 10.623C25.2997 10.4088 25.3605 10.2001 25.4609 10.0089C25.5614 9.81766 25.6995 9.64771 25.8674 9.50878C26.2073 9.22614 26.6498 9.08481 27.098 9.11399C28.2838 9.11399 29.843 10.5573 29.843 16.4145C29.843 23.8782 25.7171 30.0472 20.2084 30.0472ZM19.3476 11.5748C18.1618 11.5748 17.019 15.7826 16.8743 20.1299C16.819 21.0596 16.8361 21.9919 16.9256 22.919C18.7138 20.0753 19.805 16.8667 20.1141 13.5433C20.1057 12.0663 19.8247 11.5739 19.3466 11.5739L19.3476 11.5748ZM37.6541 29.8585C37.1569 29.9079 36.6546 29.8516 36.1817 29.6934C35.7107 29.5362 35.2805 29.2805 34.9213 28.944C34.5643 28.6093 34.2876 28.2018 34.1108 27.7505C33.9345 27.301 33.863 26.8189 33.9017 26.3391C33.9017 24.3295 36.614 14.3138 36.614 12.6653C36.614 11.8867 36.4263 11.4271 35.7102 11.4271C34.9112 11.5524 34.167 11.9029 33.5693 12.4355V11.0168C34.8106 9.9172 36.413 9.28612 38.0883 9.23708C38.5886 9.19362 39.0927 9.25581 39.5663 9.41943C40.0387 9.58355 40.4682 9.8434 40.8258 10.1835C41.1825 10.5227 41.4588 10.933 41.6344 11.387C41.809 11.8393 41.8799 12.3234 41.8398 12.8048C41.8398 14.8143 39.1293 24.789 39.1293 26.4293C39.1293 27.2089 39.3161 27.6684 40.0331 27.6684C40.8213 27.5404 41.5602 27.209 42.1731 26.7083V28.0778C40.9365 29.1849 39.3312 29.8174 37.6541 29.8585ZM40.9789 0.910841C41.3505 0.8999 41.7203 0.965547 42.0629 1.10596C42.4046 1.24637 42.7118 1.45608 42.9602 1.7214C43.2095 1.9847 43.3959 2.29872 43.5061 2.64085C43.6162 2.98297 43.6472 3.34468 43.5969 3.69993C43.5053 4.45843 43.1331 5.15812 42.5503 5.66752C41.9626 6.18157 41.2057 6.47301 40.4169 6.48902C40.0457 6.5005 39.6763 6.43396 39.3338 6.2939C38.9923 6.1546 38.6859 5.94463 38.4356 5.67846C38.1863 5.41516 37.9998 5.10114 37.8897 4.75901C37.7796 4.41689 37.7486 4.05518 37.7988 3.69993C37.8906 2.94145 38.2628 2.24179 38.8455 1.73234C39.4334 1.21869 40.1902 0.926679 40.9789 0.910841ZM51.535 25.5604C51.2969 26.7986 51.4417 27.6602 52.3455 27.6602C53.1365 27.5413 53.8777 27.2087 54.4854 26.7001L54.5704 28.0778C53.3292 29.1778 51.7268 29.8092 50.0514 29.8585C47.101 29.8585 45.9591 27.7997 46.3942 25.2404L49.2933 9.36837C50.2568 4.06919 49.9235 3.37169 46.9731 3.37169L47.1608 2.09249L56.054 0.960076L51.535 25.5604ZM76.5444 25.5185C76.3054 26.7576 76.3988 27.6684 77.3539 27.6684C78.1467 27.5237 78.8857 27.1753 79.4948 26.6591V28.0778C78.2616 29.1901 76.6543 29.8235 74.9758 29.8585C74.1268 29.9186 73.2851 29.6698 72.6127 29.1601C71.9456 28.6553 71.4981 27.9233 71.3597 27.1104C70.644 28.0208 69.7254 28.7601 68.6735 29.2722C67.6163 29.7877 66.4537 30.0638 65.2722 30.08C59.6188 30.08 57.2398 25.2814 58.3312 19.5145C59.4227 13.7485 64.5122 9.04014 70.2683 9.04014C71.6291 9.0123 72.9751 9.31959 74.1822 9.93367L74.3269 9.20425C75.4529 3.56043 74.9329 3.37169 71.9825 3.37169L72.1272 2.09249L81.0625 0.960076L76.5435 25.5194L76.5444 25.5185ZM70.413 11.1071C67.1302 11.1071 64.9482 14.8554 64.0864 19.4735C63.1826 24.3213 63.754 27.6766 66.8407 27.6766C68.9294 27.6766 71.3084 25.2148 72.0245 21.4584L73.7817 11.9441C72.7657 11.352 71.5952 11.0611 70.413 11.1071ZM91.5681 30.0873C84.9596 30.0873 83.152 25.5103 83.9624 21.1219L86.1192 9.36837C87.1173 4.0619 86.7849 3.33066 83.8345 3.33066L84.0213 2.05146L92.9407 0.960076L91.1331 10.9266C92.5278 9.76309 94.2881 9.10034 96.1217 9.04834C101.877 9.04834 104.58 13.7567 103.54 19.5227C102.5 25.2896 97.2047 30.0873 91.5681 30.0873ZM94.6549 11.222C93.6963 11.2403 92.7675 11.5508 91.9986 12.11C91.2354 12.6649 90.6726 13.4424 90.3917 14.3302L89.0612 21.7128C88.2508 26.1011 89.8717 27.889 91.9183 27.889C94.9107 27.889 96.7696 24.6906 97.7668 19.4324C98.6538 14.7241 97.8443 11.2466 94.6465 11.2466L94.6549 11.222ZM112.552 22.1805C112.552 25.6999 114.309 27.5781 117.668 27.5781C119.374 27.5781 121.855 26.4384 123.424 24.9285L124.089 26.3883C122.958 27.5399 121.604 28.4598 120.105 29.0944C118.6 29.7316 116.981 30.0718 115.34 30.0955C110.353 30.0955 106.976 26.5278 106.976 21.6799C106.976 14.5025 113.157 9.05655 119.101 9.05655C122.716 9.05655 124.754 10.9758 124.754 13.2151C124.712 16.6926 121.284 20.5977 112.552 22.1805ZM118.683 11.1563C115.972 11.1563 113.363 14.9538 112.646 20.3925C118.112 19.1124 120.439 15.5447 120.491 13.2561C120.482 11.9769 119.859 11.1563 118.675 11.1563H118.683ZM144.153 29.8585C143.304 29.9185 142.462 29.6697 141.79 29.1601C141.123 28.6552 140.676 27.9232 140.537 27.1104C139.848 28.0204 138.951 28.7612 137.918 29.274C136.879 29.7901 135.733 30.0656 134.568 30.0791C129.009 30.0791 126.63 25.2814 127.747 19.5145C128.864 13.7485 133.869 9.04743 139.642 9.04743C140.865 9.04139 142.077 9.27613 143.206 9.73764H148.629L145.721 25.5185C145.482 26.7576 145.576 27.6684 146.532 27.6684C147.324 27.5235 148.063 27.1751 148.672 26.6591V28.0778C147.438 29.19 145.831 29.8234 144.153 29.8585ZM139.778 11.1071C136.589 11.1071 134.356 14.8554 133.502 19.4735C132.598 24.3213 133.221 27.6766 136.06 27.6766C138.243 27.6766 140.579 25.1173 141.245 21.4584L143.001 11.9441C142.042 11.3519 140.921 11.0599 139.787 11.1071H139.778ZM165.265 14.4451C163.977 14.4451 163.644 13.4859 163.27 12.4766C163.142 11.9664 162.835 11.5161 162.402 11.2038C161.966 10.8888 161.432 10.7301 160.891 10.7543C160.187 10.7179 159.494 10.9367 158.946 11.3688C158.402 11.7965 158.042 12.4089 157.94 13.0838C157.795 14.3229 158.75 15.3723 160.557 16.8813L162.979 18.8006C163.879 19.455 164.578 20.3381 165 21.3535C165.419 22.3656 165.543 23.4688 165.358 24.5429C164.744 27.9711 161.794 30.0791 157.846 30.0791C153.088 30.0791 150.053 27.3803 150.385 25.5513C150.462 25.0708 150.714 24.6304 151.097 24.3131C151.48 23.994 151.968 23.8171 152.474 23.8125C153.711 23.8125 154.179 24.7234 154.563 25.9123C154.81 26.5962 155.283 27.1815 155.91 27.5791C156.54 27.9769 157.285 28.1635 158.034 28.1106C158.773 28.1449 159.499 27.9118 160.073 27.456C160.642 27.0041 161.016 26.3596 161.12 25.6507C161.308 24.0095 160.268 23.0011 158.316 21.3025L155.937 19.2929C155.1 18.679 154.447 17.8585 154.043 16.916C153.642 15.9781 153.506 14.952 153.651 13.9454C154.078 11.7472 156.209 9.02372 161.112 9.02372C164.915 9.02372 167.294 11.0825 167.081 12.731C167.057 13.1856 166.857 13.6143 166.521 13.9299C166.185 14.2472 165.735 14.4314 165.265 14.4451ZM182.668 11.5748H178.054L175.821 23.7305C175.343 26.2488 175.727 27.3894 177.151 27.3894C177.91 27.3894 179.103 26.9791 180.809 25.2896L180.902 27.0694C180.127 27.9517 179.167 28.6607 178.087 29.1482C177.002 29.6385 175.822 29.8971 174.627 29.9068C171.395 29.9068 169.775 27.7094 170.543 23.6402L172.776 11.5748H169.169L169.451 9.69661H173.092L174.047 4.25793H179.368L178.37 9.69569H182.983L182.668 11.5748Z" fill="#9C9C9C"/>
</g>
<defs>
<clipPath id="clip0_5_53">
<rect width="183" height="31" fill="white"/>
</clipPath>
</defs>
</svg>
