<svg width="73" height="73" viewBox="0 0 73 73" fill="none" xmlns="http://www.w3.org/2000/svg">
<path d="M67.3846 19.6538C67.3846 18.1032 68.6417 16.8462 70.1923 16.8462C71.743 16.8462 73 18.1032 73 19.6538C73 21.2045 71.743 22.4615 70.1923 22.4615C68.6417 22.4615 67.3846 21.2045 67.3846 19.6538Z" fill="#E4A30B"/>
<path d="M67.3846 2.80769C67.3846 1.25705 68.6417 0 70.1923 0C71.743 0 73 1.25705 73 2.80769C73 4.35834 71.743 5.61539 70.1923 5.61539C68.6417 5.61539 67.3846 4.35834 67.3846 2.80769Z" fill="#E4A30B"/>
<path d="M50.5385 36.5C50.5385 34.9494 51.7955 33.6923 53.3462 33.6923C54.8968 33.6923 56.1538 34.9494 56.1538 36.5C56.1538 38.0506 54.8968 39.3077 53.3462 39.3077C51.7955 39.3077 50.5385 38.0506 50.5385 36.5Z" fill="#E4A30B"/>
<path d="M50.5385 53.3462C50.5385 51.7955 51.7955 50.5385 53.3462 50.5385C54.8968 50.5385 56.1538 51.7955 56.1538 53.3462C56.1538 54.8968 54.8968 56.1538 53.3462 56.1538C51.7955 56.1538 50.5385 54.8968 50.5385 53.3462Z" fill="#E4A30B"/>
<path d="M50.5385 19.6538C50.5385 18.1032 51.7955 16.8462 53.3462 16.8462C54.8968 16.8462 56.1538 18.1032 56.1538 19.6538C56.1538 21.2045 54.8968 22.4615 53.3462 22.4615C51.7955 22.4615 50.5385 21.2045 50.5385 19.6538Z" fill="#E4A30B"/>
<path d="M50.5385 2.80769C50.5385 1.25705 51.7955 0 53.3462 0C54.8968 0 56.1538 1.25705 56.1538 2.80769C56.1538 4.35834 54.8968 5.61539 53.3462 5.61539C51.7955 5.61539 50.5385 4.35834 50.5385 2.80769Z" fill="#E4A30B"/>
<path d="M33.6923 36.5C33.6923 34.9494 34.9494 33.6923 36.5 33.6923C38.0506 33.6923 39.3077 34.9494 39.3077 36.5C39.3077 38.0506 38.0506 39.3077 36.5 39.3077C34.9494 39.3077 33.6923 38.0506 33.6923 36.5Z" fill="#E4A30B"/>
<path d="M33.6923 53.3462C33.6923 51.7955 34.9494 50.5385 36.5 50.5385C38.0506 50.5385 39.3077 51.7955 39.3077 53.3462C39.3077 54.8968 38.0506 56.1538 36.5 56.1538C34.9494 56.1538 33.6923 54.8968 33.6923 53.3462Z" fill="#E4A30B"/>
<path d="M33.6923 19.6538C33.6923 18.1032 34.9494 16.8462 36.5 16.8462C38.0506 16.8462 39.3077 18.1032 39.3077 19.6538C39.3077 21.2045 38.0506 22.4615 36.5 22.4615C34.9494 22.4615 33.6923 21.2045 33.6923 19.6538Z" fill="#E4A30B"/>
<path d="M33.6923 2.80769C33.6923 1.25705 34.9494 0 36.5 0C38.0506 0 39.3077 1.25705 39.3077 2.80769C39.3077 4.35834 38.0506 5.61539 36.5 5.61539C34.9494 5.61539 33.6923 4.35834 33.6923 2.80769Z" fill="#E4A30B"/>
<path d="M16.8462 70.1923C16.8462 68.6417 18.1032 67.3846 19.6538 67.3846C21.2045 67.3846 22.4615 68.6417 22.4615 70.1923C22.4615 71.743 21.2045 73 19.6538 73C18.1032 73 16.8462 71.743 16.8462 70.1923Z" fill="#E4A30B"/>
<path d="M16.8462 36.5C16.8462 34.9494 18.1032 33.6923 19.6538 33.6923C21.2045 33.6923 22.4615 34.9494 22.4615 36.5C22.4615 38.0506 21.2045 39.3077 19.6538 39.3077C18.1032 39.3077 16.8462 38.0506 16.8462 36.5Z" fill="#E4A30B"/>
<path d="M0 70.1923C0 68.6417 1.25705 67.3846 2.80769 67.3846C4.35834 67.3846 5.61539 68.6417 5.61539 70.1923C5.61539 71.743 4.35834 73 2.80769 73C1.25705 73 0 71.743 0 70.1923Z" fill="#E4A30B"/>
<path d="M0 36.5C0 34.9494 1.25705 33.6923 2.80769 33.6923C4.35834 33.6923 5.61539 34.9494 5.61539 36.5C5.61539 38.0506 4.35834 39.3077 2.80769 39.3077C1.25705 39.3077 0 38.0506 0 36.5Z" fill="#E4A30B"/>
<path d="M16.8462 53.3462C16.8462 51.7955 18.1032 50.5385 19.6538 50.5385C21.2045 50.5385 22.4615 51.7955 22.4615 53.3462C22.4615 54.8968 21.2045 56.1538 19.6538 56.1538C18.1032 56.1538 16.8462 54.8968 16.8462 53.3462Z" fill="#E4A30B"/>
<path d="M16.8462 19.6538C16.8462 18.1032 18.1032 16.8462 19.6538 16.8462C21.2045 16.8462 22.4615 18.1032 22.4615 19.6538C22.4615 21.2045 21.2045 22.4615 19.6538 22.4615C18.1032 22.4615 16.8462 21.2045 16.8462 19.6538Z" fill="#E4A30B"/>
<path d="M16.8462 2.80769C16.8462 1.25705 18.1032 0 19.6538 0C21.2045 0 22.4615 1.25705 22.4615 2.80769C22.4615 4.35834 21.2045 5.61539 19.6538 5.61539C18.1032 5.61539 16.8462 4.35834 16.8462 2.80769Z" fill="#E4A30B"/>
<path d="M0 53.3462C0 51.7955 1.25705 50.5385 2.80769 50.5385C4.35834 50.5385 5.61539 51.7955 5.61539 53.3462C5.61539 54.8968 4.35834 56.1538 2.80769 56.1538C1.25705 56.1538 0 54.8968 0 53.3462Z" fill="#E4A30B"/>
<path d="M0 19.6538C0 18.1032 1.25705 16.8462 2.80769 16.8462C4.35834 16.8462 5.61539 18.1032 5.61539 19.6538C5.61539 21.2045 4.35834 22.4615 2.80769 22.4615C1.25705 22.4615 0 21.2045 0 19.6538Z" fill="#E4A30B"/>
<path d="M0 2.80769C0 1.25705 1.25705 0 2.80769 0C4.35834 0 5.61539 1.25705 5.61539 2.80769C5.61539 4.35834 4.35834 5.61539 2.80769 5.61539C1.25705 5.61539 0 4.35834 0 2.80769Z" fill="#E4A30B"/>
</svg>
