<svg width="72" height="72" viewBox="0 0 72 72" fill="none" xmlns="http://www.w3.org/2000/svg">
<path d="M66.4615 19.3846C66.4615 17.8552 67.7014 16.6154 69.2308 16.6154C70.7602 16.6154 72 17.8552 72 19.3846C72 20.914 70.7602 22.1538 69.2308 22.1538C67.7014 22.1538 66.4615 20.914 66.4615 19.3846Z" fill="#7E7E7E" fill-opacity="0.3"/>
<path d="M66.4615 2.76923C66.4615 1.23982 67.7014 -1.90735e-06 69.2308 -1.90735e-06C70.7602 -1.90735e-06 72 1.23982 72 2.76923C72 4.29863 70.7602 5.53846 69.2308 5.53846C67.7014 5.53846 66.4615 4.29863 66.4615 2.76923Z" fill="#7E7E7E" fill-opacity="0.3"/>
<path d="M49.8462 36C49.8462 34.4706 51.086 33.2308 52.6154 33.2308C54.1448 33.2308 55.3846 34.4706 55.3846 36C55.3846 37.5294 54.1448 38.7692 52.6154 38.7692C51.086 38.7692 49.8462 37.5294 49.8462 36Z" fill="#7E7E7E" fill-opacity="0.3"/>
<path d="M49.8462 52.6154C49.8462 51.086 51.086 49.8462 52.6154 49.8462C54.1448 49.8462 55.3846 51.086 55.3846 52.6154C55.3846 54.1448 54.1448 55.3846 52.6154 55.3846C51.086 55.3846 49.8462 54.1448 49.8462 52.6154Z" fill="#7E7E7E" fill-opacity="0.3"/>
<path d="M49.8462 19.3846C49.8462 17.8552 51.086 16.6154 52.6154 16.6154C54.1448 16.6154 55.3846 17.8552 55.3846 19.3846C55.3846 20.914 54.1448 22.1538 52.6154 22.1538C51.086 22.1538 49.8462 20.914 49.8462 19.3846Z" fill="#7E7E7E" fill-opacity="0.3"/>
<path d="M49.8462 2.76923C49.8462 1.23982 51.086 -1.90735e-06 52.6154 -1.90735e-06C54.1448 -1.90735e-06 55.3846 1.23982 55.3846 2.76923C55.3846 4.29863 54.1448 5.53846 52.6154 5.53846C51.086 5.53846 49.8462 4.29863 49.8462 2.76923Z" fill="#7E7E7E" fill-opacity="0.3"/>
<path d="M33.2308 36C33.2308 34.4706 34.4706 33.2308 36 33.2308C37.5294 33.2308 38.7692 34.4706 38.7692 36C38.7692 37.5294 37.5294 38.7692 36 38.7692C34.4706 38.7692 33.2308 37.5294 33.2308 36Z" fill="#7E7E7E" fill-opacity="0.3"/>
<path d="M33.2308 52.6154C33.2308 51.086 34.4706 49.8462 36 49.8462C37.5294 49.8462 38.7692 51.086 38.7692 52.6154C38.7692 54.1448 37.5294 55.3846 36 55.3846C34.4706 55.3846 33.2308 54.1448 33.2308 52.6154Z" fill="#7E7E7E" fill-opacity="0.3"/>
<path d="M33.2308 19.3846C33.2308 17.8552 34.4706 16.6154 36 16.6154C37.5294 16.6154 38.7692 17.8552 38.7692 19.3846C38.7692 20.914 37.5294 22.1538 36 22.1538C34.4706 22.1538 33.2308 20.914 33.2308 19.3846Z" fill="#7E7E7E" fill-opacity="0.3"/>
<path d="M33.2308 2.76923C33.2308 1.23982 34.4706 -1.90735e-06 36 -1.90735e-06C37.5294 -1.90735e-06 38.7692 1.23982 38.7692 2.76923C38.7692 4.29863 37.5294 5.53846 36 5.53846C34.4706 5.53846 33.2308 4.29863 33.2308 2.76923Z" fill="#7E7E7E" fill-opacity="0.3"/>
<path d="M16.6154 69.2308C16.6154 67.7014 17.8552 66.4615 19.3846 66.4615C20.914 66.4615 22.1538 67.7014 22.1538 69.2308C22.1538 70.7602 20.914 72 19.3846 72C17.8552 72 16.6154 70.7602 16.6154 69.2308Z" fill="#7E7E7E" fill-opacity="0.3"/>
<path d="M16.6154 36C16.6154 34.4706 17.8552 33.2308 19.3846 33.2308C20.914 33.2308 22.1538 34.4706 22.1538 36C22.1538 37.5294 20.914 38.7692 19.3846 38.7692C17.8552 38.7692 16.6154 37.5294 16.6154 36Z" fill="#7E7E7E" fill-opacity="0.3"/>
<path d="M-1.90735e-06 69.2308C-1.90735e-06 67.7014 1.23982 66.4615 2.76923 66.4615C4.29863 66.4615 5.53846 67.7014 5.53846 69.2308C5.53846 70.7602 4.29863 72 2.76923 72C1.23982 72 -1.90735e-06 70.7602 -1.90735e-06 69.2308Z" fill="#7E7E7E" fill-opacity="0.3"/>
<path d="M-1.90735e-06 36C-1.90735e-06 34.4706 1.23982 33.2308 2.76923 33.2308C4.29863 33.2308 5.53846 34.4706 5.53846 36C5.53846 37.5294 4.29863 38.7692 2.76923 38.7692C1.23982 38.7692 -1.90735e-06 37.5294 -1.90735e-06 36Z" fill="#7E7E7E" fill-opacity="0.3"/>
<path d="M16.6154 52.6154C16.6154 51.086 17.8552 49.8462 19.3846 49.8462C20.914 49.8462 22.1538 51.086 22.1538 52.6154C22.1538 54.1448 20.914 55.3846 19.3846 55.3846C17.8552 55.3846 16.6154 54.1448 16.6154 52.6154Z" fill="#7E7E7E" fill-opacity="0.3"/>
<path d="M16.6154 19.3846C16.6154 17.8552 17.8552 16.6154 19.3846 16.6154C20.914 16.6154 22.1538 17.8552 22.1538 19.3846C22.1538 20.914 20.914 22.1538 19.3846 22.1538C17.8552 22.1538 16.6154 20.914 16.6154 19.3846Z" fill="#7E7E7E" fill-opacity="0.3"/>
<path d="M16.6154 2.76923C16.6154 1.23982 17.8552 -1.90735e-06 19.3846 -1.90735e-06C20.914 -1.90735e-06 22.1538 1.23982 22.1538 2.76923C22.1538 4.29863 20.914 5.53846 19.3846 5.53846C17.8552 5.53846 16.6154 4.29863 16.6154 2.76923Z" fill="#7E7E7E" fill-opacity="0.3"/>
<path d="M-1.90735e-06 52.6154C-1.90735e-06 51.086 1.23982 49.8462 2.76923 49.8462C4.29863 49.8462 5.53846 51.086 5.53846 52.6154C5.53846 54.1448 4.29863 55.3846 2.76923 55.3846C1.23982 55.3846 -1.90735e-06 54.1448 -1.90735e-06 52.6154Z" fill="#7E7E7E" fill-opacity="0.3"/>
<path d="M-1.90735e-06 19.3846C-1.90735e-06 17.8552 1.23982 16.6154 2.76923 16.6154C4.29863 16.6154 5.53846 17.8552 5.53846 19.3846C5.53846 20.914 4.29863 22.1538 2.76923 22.1538C1.23982 22.1538 -1.90735e-06 20.914 -1.90735e-06 19.3846Z" fill="#7E7E7E" fill-opacity="0.3"/>
<path d="M-1.90735e-06 2.76923C-1.90735e-06 1.23982 1.23982 -1.90735e-06 2.76923 -1.90735e-06C4.29863 -1.90735e-06 5.53846 1.23982 5.53846 2.76923C5.53846 4.29863 4.29863 5.53846 2.76923 5.53846C1.23982 5.53846 -1.90735e-06 4.29863 -1.90735e-06 2.76923Z" fill="#7E7E7E" fill-opacity="0.3"/>
</svg>
