<svg width="73" height="73" viewBox="0 0 73 73" fill="none" xmlns="http://www.w3.org/2000/svg">
<path d="M67.3846 53.3462C67.3846 54.8968 68.6417 56.1538 70.1923 56.1538C71.743 56.1538 73 54.8968 73 53.3462C73 51.7955 71.743 50.5385 70.1923 50.5385C68.6417 50.5385 67.3846 51.7955 67.3846 53.3462Z" fill="#7E7E7E" fill-opacity="0.3"/>
<path d="M67.3846 70.1923C67.3846 71.743 68.6417 73 70.1923 73C71.743 73 73 71.743 73 70.1923C73 68.6417 71.743 67.3846 70.1923 67.3846C68.6417 67.3846 67.3846 68.6417 67.3846 70.1923Z" fill="#7E7E7E" fill-opacity="0.3"/>
<path d="M50.5385 36.5C50.5385 38.0506 51.7955 39.3077 53.3462 39.3077C54.8968 39.3077 56.1538 38.0506 56.1538 36.5C56.1538 34.9494 54.8968 33.6923 53.3462 33.6923C51.7955 33.6923 50.5385 34.9494 50.5385 36.5Z" fill="#7E7E7E" fill-opacity="0.3"/>
<path d="M50.5385 19.6538C50.5385 21.2045 51.7955 22.4615 53.3462 22.4615C54.8968 22.4615 56.1538 21.2045 56.1538 19.6538C56.1538 18.1032 54.8968 16.8462 53.3462 16.8462C51.7955 16.8462 50.5385 18.1032 50.5385 19.6538Z" fill="#7E7E7E" fill-opacity="0.3"/>
<path d="M50.5385 53.3462C50.5385 54.8968 51.7955 56.1538 53.3462 56.1538C54.8968 56.1538 56.1538 54.8968 56.1538 53.3462C56.1538 51.7955 54.8968 50.5385 53.3462 50.5385C51.7955 50.5385 50.5385 51.7955 50.5385 53.3462Z" fill="#7E7E7E" fill-opacity="0.3"/>
<path d="M50.5385 70.1923C50.5385 71.743 51.7955 73 53.3462 73C54.8968 73 56.1538 71.743 56.1538 70.1923C56.1538 68.6417 54.8968 67.3846 53.3462 67.3846C51.7955 67.3846 50.5385 68.6417 50.5385 70.1923Z" fill="#7E7E7E" fill-opacity="0.3"/>
<path d="M33.6923 36.5C33.6923 38.0506 34.9494 39.3077 36.5 39.3077C38.0506 39.3077 39.3077 38.0506 39.3077 36.5C39.3077 34.9494 38.0506 33.6923 36.5 33.6923C34.9494 33.6923 33.6923 34.9494 33.6923 36.5Z" fill="#7E7E7E" fill-opacity="0.3"/>
<path d="M33.6923 19.6538C33.6923 21.2045 34.9494 22.4615 36.5 22.4615C38.0506 22.4615 39.3077 21.2045 39.3077 19.6538C39.3077 18.1032 38.0506 16.8462 36.5 16.8462C34.9494 16.8462 33.6923 18.1032 33.6923 19.6538Z" fill="#7E7E7E" fill-opacity="0.3"/>
<path d="M33.6923 53.3462C33.6923 54.8968 34.9494 56.1538 36.5 56.1538C38.0506 56.1538 39.3077 54.8968 39.3077 53.3462C39.3077 51.7955 38.0506 50.5385 36.5 50.5385C34.9494 50.5385 33.6923 51.7955 33.6923 53.3462Z" fill="#7E7E7E" fill-opacity="0.3"/>
<path d="M33.6923 70.1923C33.6923 71.743 34.9494 73 36.5 73C38.0506 73 39.3077 71.743 39.3077 70.1923C39.3077 68.6417 38.0506 67.3846 36.5 67.3846C34.9494 67.3846 33.6923 68.6417 33.6923 70.1923Z" fill="#7E7E7E" fill-opacity="0.3"/>
<path d="M16.8462 2.80769C16.8462 4.35834 18.1032 5.61538 19.6538 5.61538C21.2045 5.61538 22.4615 4.35834 22.4615 2.80769C22.4615 1.25705 21.2045 0 19.6538 0C18.1032 0 16.8462 1.25705 16.8462 2.80769Z" fill="#7E7E7E" fill-opacity="0.3"/>
<path d="M16.8462 36.5C16.8462 38.0506 18.1032 39.3077 19.6538 39.3077C21.2045 39.3077 22.4615 38.0506 22.4615 36.5C22.4615 34.9494 21.2045 33.6923 19.6538 33.6923C18.1032 33.6923 16.8462 34.9494 16.8462 36.5Z" fill="#7E7E7E" fill-opacity="0.3"/>
<path d="M4.76837e-07 2.80769C4.76837e-07 4.35834 1.25705 5.61538 2.80769 5.61538C4.35834 5.61538 5.61539 4.35834 5.61539 2.80769C5.61539 1.25705 4.35834 0 2.80769 0C1.25705 0 4.76837e-07 1.25705 4.76837e-07 2.80769Z" fill="#7E7E7E" fill-opacity="0.3"/>
<path d="M4.76837e-07 36.5C4.76837e-07 38.0506 1.25705 39.3077 2.80769 39.3077C4.35834 39.3077 5.61539 38.0506 5.61539 36.5C5.61539 34.9494 4.35834 33.6923 2.80769 33.6923C1.25705 33.6923 4.76837e-07 34.9494 4.76837e-07 36.5Z" fill="#7E7E7E" fill-opacity="0.3"/>
<path d="M16.8462 19.6538C16.8462 21.2045 18.1032 22.4615 19.6538 22.4615C21.2045 22.4615 22.4615 21.2045 22.4615 19.6538C22.4615 18.1032 21.2045 16.8462 19.6538 16.8462C18.1032 16.8462 16.8462 18.1032 16.8462 19.6538Z" fill="#7E7E7E" fill-opacity="0.3"/>
<path d="M16.8462 53.3462C16.8462 54.8968 18.1032 56.1538 19.6538 56.1538C21.2045 56.1538 22.4615 54.8968 22.4615 53.3462C22.4615 51.7955 21.2045 50.5385 19.6538 50.5385C18.1032 50.5385 16.8462 51.7955 16.8462 53.3462Z" fill="#7E7E7E" fill-opacity="0.3"/>
<path d="M16.8462 70.1923C16.8462 71.743 18.1032 73 19.6538 73C21.2045 73 22.4615 71.743 22.4615 70.1923C22.4615 68.6417 21.2045 67.3846 19.6538 67.3846C18.1032 67.3846 16.8462 68.6417 16.8462 70.1923Z" fill="#7E7E7E" fill-opacity="0.3"/>
<path d="M4.76837e-07 19.6538C4.76837e-07 21.2045 1.25705 22.4615 2.80769 22.4615C4.35834 22.4615 5.61539 21.2045 5.61539 19.6538C5.61539 18.1032 4.35834 16.8462 2.80769 16.8462C1.25705 16.8462 4.76837e-07 18.1032 4.76837e-07 19.6538Z" fill="#7E7E7E" fill-opacity="0.3"/>
<path d="M4.76837e-07 53.3462C4.76837e-07 54.8968 1.25705 56.1538 2.80769 56.1538C4.35834 56.1538 5.61539 54.8968 5.61539 53.3462C5.61539 51.7955 4.35834 50.5385 2.80769 50.5385C1.25705 50.5385 4.76837e-07 51.7955 4.76837e-07 53.3462Z" fill="#7E7E7E" fill-opacity="0.3"/>
<path d="M4.76837e-07 70.1923C4.76837e-07 71.743 1.25705 73 2.80769 73C4.35834 73 5.61539 71.743 5.61539 70.1923C5.61539 68.6417 4.35834 67.3846 2.80769 67.3846C1.25705 67.3846 4.76837e-07 68.6417 4.76837e-07 70.1923Z" fill="#7E7E7E" fill-opacity="0.3"/>
</svg>
