<svg width="35" height="35" viewBox="0 0 35 35" fill="none" xmlns="http://www.w3.org/2000/svg">
<g clip-path="url(#clip0_5_121)">
<path d="M17.5 0C12.7458 0 12.1523 0.021875 10.2856 0.105C8.42188 0.1925 7.15312 0.485625 6.0375 0.91875C4.88688 1.365 3.9098 1.96437 2.93708 2.93708C1.96437 3.9098 1.36355 4.88542 0.91875 6.0375C0.485625 7.15312 0.191042 8.42188 0.105 10.2856C0.0175 12.1523 0 12.7458 0 17.5C0 22.2542 0.021875 22.8477 0.105 24.7144C0.1925 26.5767 0.485625 27.8469 0.91875 28.9625C1.365 30.1117 1.96437 31.0902 2.93708 32.063C3.9098 33.0342 4.88542 33.6364 6.0375 34.0812C7.15458 34.513 8.42333 34.8089 10.2856 34.895C12.1523 34.9825 12.7458 35 17.5 35C22.2542 35 22.8477 34.9781 24.7144 34.895C26.5767 34.8075 27.8469 34.513 28.9625 34.0812C30.1117 33.635 31.0902 33.0342 32.063 32.063C33.0342 31.0902 33.6364 30.1161 34.0812 28.9625C34.513 27.8469 34.8089 26.5767 34.895 24.7144C34.9825 22.8477 35 22.2542 35 17.5C35 12.7458 34.9781 12.1523 34.895 10.2856C34.8075 8.42333 34.513 7.15167 34.0812 6.0375C33.635 4.88688 33.0342 3.9098 32.063 2.93708C31.0902 1.96437 30.1161 1.36355 28.9625 0.91875C27.8469 0.485625 26.5767 0.191042 24.7144 0.105C22.8477 0.0175 22.2542 0 17.5 0ZM17.5 3.15C22.1711 3.15 22.7281 3.17333 24.573 3.25355C26.2792 3.33375 27.2052 3.61667 27.8206 3.85875C28.6402 4.1752 29.2206 4.55438 29.8361 5.16542C30.447 5.77792 30.8263 6.3598 31.1427 7.17938C31.3819 7.7948 31.6677 8.72083 31.745 10.4271C31.8281 12.2733 31.847 12.8275 31.847 17.5C31.847 22.1725 31.8252 22.7281 31.7392 24.573C31.6502 26.2792 31.3658 27.2052 31.1252 27.8206C30.7986 28.6402 30.4267 29.2206 29.8142 29.8361C29.2031 30.447 28.6125 30.8263 27.8017 31.1427C27.1892 31.3819 26.2486 31.6677 24.5423 31.745C22.6844 31.8281 22.1375 31.847 17.4562 31.847C12.7736 31.847 12.2267 31.8252 10.3702 31.7392C8.6625 31.6502 7.72188 31.3658 7.10938 31.1252C6.27958 30.7986 5.70938 30.4267 5.09833 29.8142C4.48438 29.2031 4.09208 28.6125 3.78583 27.8017C3.5452 27.1892 3.2623 26.2486 3.17333 24.5423C3.1077 22.7048 3.08437 22.1375 3.08437 17.4781C3.08437 12.8173 3.1077 12.2486 3.17333 10.3892C3.2623 8.68292 3.5452 7.74375 3.78583 7.13125C4.09208 6.3 4.48438 5.73125 5.09833 5.1173C5.70938 4.50625 6.27958 4.1125 7.10938 3.8077C7.72188 3.56562 8.64208 3.28125 10.3483 3.19375C12.2077 3.12813 12.7545 3.10625 17.4344 3.10625L17.5 3.15ZM17.5 8.51375C12.5344 8.51375 8.51375 12.5388 8.51375 17.5C8.51375 22.4656 12.5388 26.4862 17.5 26.4862C22.4656 26.4862 26.4862 22.4613 26.4862 17.5C26.4862 12.5344 22.4613 8.51375 17.5 8.51375ZM17.5 23.3333C14.277 23.3333 11.6667 20.723 11.6667 17.5C11.6667 14.277 14.277 11.6667 17.5 11.6667C20.723 11.6667 23.3333 14.277 23.3333 17.5C23.3333 20.723 20.723 23.3333 17.5 23.3333ZM28.942 8.15938C28.942 9.31875 28 10.2594 26.842 10.2594C25.6827 10.2594 24.742 9.3173 24.742 8.15938C24.742 7.00145 25.6842 6.06083 26.842 6.06083C27.9986 6.05937 28.942 7.00145 28.942 8.15938Z" fill="white"/>
</g>
<defs>
<clipPath id="clip0_5_121">
<rect width="35" height="35" fill="white"/>
</clipPath>
</defs>
</svg>
