<svg width="35" height="25" viewBox="0 0 35 25" fill="none" xmlns="http://www.w3.org/2000/svg">
<path d="M34.268 4.38151C34.0702 3.67078 33.6803 3.0221 33.1371 2.50043C32.5941 1.97876 31.9168 1.60241 31.1733 1.40906C28.4448 0.706299 17.5 0.706299 17.5 0.706299C17.5 0.706299 6.5552 0.706299 3.8252 1.40906C3.08206 1.60275 2.40522 1.97924 1.8624 2.50087C1.31959 3.02251 0.929821 3.67101 0.732083 4.38151C0 7.00327 0 12.4722 0 12.4722C0 12.4722 0 17.9412 0.732083 20.563C0.929813 21.2737 1.31975 21.9224 1.86286 22.444C2.40597 22.9657 3.08317 23.342 3.82667 23.5354C6.5552 24.2381 17.5 24.2381 17.5 24.2381C17.5 24.2381 28.4448 24.2381 31.1748 23.5354C31.9184 23.3422 32.5956 22.9659 33.1388 22.4442C33.6819 21.9225 34.0717 21.2737 34.2694 20.563C35 17.9412 35 12.4722 35 12.4722C35 12.4722 35 7.00327 34.268 4.38151ZM13.9198 17.4374V7.50706L23.068 12.4722L13.9198 17.4374Z" fill="white"/>
</svg>
