<svg width="20" height="20" viewBox="0 0 20 20" fill="none" xmlns="http://www.w3.org/2000/svg">
<path d="M10 0C4.50018 0 0 4.50018 0 10C0 15.4998 4.50018 20 10 20C15.4998 20 20 15.4998 20 10C20 4.50018 15.4998 0 10 0ZM13.5497 13.8006L9.46958 11.2901C9.32268 11.2023 9.20116 11.0778 9.11699 10.9288C9.03282 10.7799 8.9889 10.6115 8.98956 10.4404V5.74943C8.99482 5.55031 9.077 5.36096 9.21885 5.22112C9.36071 5.08128 9.55121 5.00181 9.75039 4.9994C9.94882 5.00097 10.1387 5.08049 10.279 5.22081C10.4193 5.36113 10.4989 5.55099 10.5004 5.74943V10.1992L14.3406 12.5093C14.7006 12.7301 14.8206 13.1993 14.5998 13.5605C14.4912 13.7303 14.3203 13.8506 14.1239 13.8955C13.9275 13.9404 13.7213 13.9063 13.5497 13.8006Z" fill="url(#paint0_linear_8_545)"/>
<defs>
<linearGradient id="paint0_linear_8_545" x1="10" y1="0" x2="10" y2="20" gradientUnits="userSpaceOnUse">
<stop stop-color="#FFBF00"/>
<stop offset="1" stop-color="#F2A60C"/>
</linearGradient>
</defs>
</svg>
