<svg width="12" height="8" viewBox="0 0 12 8" fill="none" xmlns="http://www.w3.org/2000/svg">
<path fill-rule="evenodd" clip-rule="evenodd" d="M6.92327 0.331055C7.29272 -0.0794608 7.92501 -0.112748 8.33552 0.256705L11.669 3.2567C11.8797 3.44635 12 3.71652 12 4.00001C12 4.2835 11.8797 4.55367 11.669 4.74331L8.33552 7.74331C7.92501 8.11277 7.29272 8.07948 6.92327 7.66896C6.55381 7.25845 6.5871 6.62616 6.99762 6.2567L8.39399 5.00001H1C0.447715 5.00001 0 4.55229 0 4.00001C0 3.44772 0.447715 3.00001 1 3.00001H8.39399L6.99762 1.74331C6.5871 1.37386 6.55381 0.74157 6.92327 0.331055Z" fill="#332200"/>
</svg>
