<svg width="20" height="20" viewBox="0 0 20 20" fill="none" xmlns="http://www.w3.org/2000/svg">
<path d="M16.025 12.7171L13.908 12.4751C13.6592 12.4459 13.4071 12.4735 13.1705 12.5558C12.9339 12.638 12.719 12.7728 12.542 12.9501L11.008 14.4831C8.6427 13.2799 6.72012 11.3574 5.517 8.99206L7.058 7.45006C7.417 7.09206 7.592 6.59206 7.533 6.08306L7.292 3.98306C7.24464 3.57647 7.04942 3.20149 6.7435 2.9295C6.43759 2.65752 6.04234 2.50752 5.633 2.50806H4.192C3.25 2.50806 2.467 3.29206 2.525 4.23306C2.967 11.3501 8.658 17.0331 15.767 17.4751C16.708 17.5331 17.492 16.7501 17.492 15.8081V14.3671C17.4941 13.9595 17.3454 13.5656 17.0746 13.261C16.8038 12.9564 16.43 12.7627 16.025 12.7171Z" fill="url(#paint0_linear_8_490)"/>
<defs>
<linearGradient id="paint0_linear_8_490" x1="10.007" y1="2.50806" x2="10.007" y2="17.4781" gradientUnits="userSpaceOnUse">
<stop stop-color="#FFBF00"/>
<stop offset="1" stop-color="#F2A60C"/>
</linearGradient>
</defs>
</svg>
