<svg width="32" height="32" viewBox="0 0 32 32" fill="none" xmlns="http://www.w3.org/2000/svg">
<path d="M22.667 22.6533C20.867 22.6533 19.7337 23.2133 18.7337 23.7199C17.867 24.1599 17.1603 24.5199 16.0003 24.5199C14.8003 24.5199 14.1337 24.1866 13.267 23.7199C12.267 23.2133 11.1737 22.6533 9.33366 22.6533C7.49366 22.6533 6.40033 23.2133 5.40033 23.7199C4.82699 24.0133 4.32033 24.2666 3.70699 24.4133C3.10699 24.5466 2.66699 25.0266 2.66699 25.6266V25.7599C2.66699 26.5599 3.41366 27.1333 4.18699 26.9733C5.17366 26.7733 5.92033 26.3999 6.60033 26.0533C7.46699 25.6133 8.16033 25.2533 9.33366 25.2533C10.507 25.2533 11.2003 25.5866 12.067 26.0533C13.067 26.5599 14.1603 27.1199 16.0003 27.1199C17.8403 27.1199 18.9337 26.5599 19.9337 26.0533C20.8003 25.6133 21.507 25.2533 22.667 25.2533C23.867 25.2533 24.5337 25.5866 25.4003 26.0533C26.0937 26.3999 26.8403 26.7866 27.8403 26.9866C28.0205 27.0218 28.2061 27.0169 28.3842 26.9725C28.5622 26.928 28.7283 26.845 28.8708 26.7292C29.0132 26.6135 29.1285 26.4679 29.2085 26.3027C29.2885 26.1375 29.3312 25.9568 29.3337 25.7733V25.6533C29.3337 25.0399 28.8803 24.5599 28.2803 24.4266C27.667 24.2933 27.1737 24.0399 26.6003 23.7333C25.6003 23.2133 24.467 22.6533 22.667 22.6533ZM22.667 16.7199C20.867 16.7199 19.7337 17.2933 18.7337 17.7866C17.867 18.2133 17.1603 18.5866 16.0003 18.5866C14.8003 18.5866 14.1337 18.2533 13.267 17.7866C12.267 17.2799 11.1737 16.7199 9.33366 16.7199C7.49366 16.7199 6.40033 17.2933 5.40033 17.7866C4.82699 18.0666 4.32033 18.3333 3.69366 18.4799C3.10699 18.6133 2.66699 19.0933 2.66699 19.6933V19.8266C2.66707 20.0109 2.70822 20.1929 2.78746 20.3592C2.8667 20.5256 2.98203 20.6723 3.12506 20.7885C3.26809 20.9047 3.43522 20.9876 3.61431 21.0311C3.79339 21.0746 3.97992 21.0776 4.16033 21.0399C5.16033 20.8399 5.90699 20.4533 6.60033 20.1199C7.46699 19.6533 8.13366 19.3199 9.33366 19.3199C10.5337 19.3199 11.2003 19.6533 12.067 20.1199C13.067 20.6266 14.1603 21.1866 16.0003 21.1866C17.8403 21.1866 18.9337 20.6133 19.9337 20.1199C20.8003 19.6533 21.467 19.3199 22.667 19.3199C23.867 19.3199 24.5337 19.6533 25.4003 20.1199C26.0937 20.4666 26.8403 20.8533 27.8403 21.0533C28.0215 21.0886 28.2083 21.0835 28.3874 21.0383C28.5664 20.993 28.7332 20.9088 28.8759 20.7916C29.0185 20.6744 29.1336 20.5271 29.2127 20.3603C29.2918 20.1935 29.3331 20.0113 29.3337 19.8266V19.7066C29.3337 19.0933 28.8803 18.6133 28.2803 18.4799C27.667 18.3466 27.1737 18.0933 26.6003 17.7866C25.6003 17.2799 24.467 16.7199 22.667 16.7199ZM26.6003 5.94661C25.6003 5.43994 24.4937 4.87994 22.667 4.87994C20.8403 4.87994 19.7337 5.43994 18.7337 5.94661C17.867 6.37328 17.1603 6.74661 16.0003 6.74661C14.8003 6.74661 14.1337 6.41328 13.267 5.94661C12.267 5.45328 11.1737 4.87994 9.33366 4.87994C7.49366 4.87994 6.40033 5.43994 5.40033 5.94661C4.82699 6.23994 4.32033 6.49328 3.70699 6.63994C3.10699 6.77328 2.66699 7.25328 2.66699 7.85328V7.94661C2.66699 8.74661 3.38699 9.33328 4.16033 9.17328C5.16033 8.97328 5.90699 8.58661 6.60033 8.25328C7.46699 7.81328 8.16033 7.45328 9.33366 7.45328C10.507 7.45328 11.2003 7.78661 12.067 8.25328C13.067 8.75994 14.1603 9.31994 16.0003 9.31994C17.8403 9.31994 18.9337 8.74661 19.9337 8.25328C20.8003 7.82661 21.507 7.45328 22.667 7.45328C23.867 7.45328 24.5337 7.78661 25.4003 8.25328C26.0937 8.59994 26.8403 8.98661 27.8403 9.18661C28.0215 9.22197 28.2083 9.21685 28.3874 9.17161C28.5664 9.12638 28.7332 9.04215 28.8759 8.92495C29.0185 8.80776 29.1336 8.66048 29.2127 8.49366C29.2918 8.32683 29.3331 8.14458 29.3337 7.95994V7.83994C29.3337 7.22661 28.8803 6.74661 28.2803 6.61328C27.667 6.47994 27.1737 6.23994 26.6003 5.94661ZM22.667 10.7866C20.867 10.7866 19.7337 11.3599 18.7337 11.8533C17.867 12.3199 17.2003 12.6533 16.0003 12.6533C14.8003 12.6533 14.1337 12.3199 13.267 11.8533C12.267 11.3466 11.1737 10.7866 9.33366 10.7866C7.49366 10.7866 6.40033 11.3599 5.40033 11.8533C4.82699 12.1599 4.33366 12.4133 3.72033 12.5466C3.12033 12.6799 2.66699 13.1599 2.66699 13.7733V13.8933C2.66707 14.0776 2.70822 14.2595 2.78746 14.4259C2.8667 14.5923 2.98203 14.7389 3.12506 14.8551C3.26809 14.9714 3.43522 15.0542 3.61431 15.0977C3.79339 15.1412 3.97992 15.1443 4.16033 15.1066C5.16033 14.9066 5.90699 14.5199 6.60033 14.1866C7.46699 13.7599 8.17366 13.3866 9.33366 13.3866C10.4937 13.3866 11.2003 13.7199 12.067 14.1866C13.067 14.6933 14.1603 15.2533 16.0003 15.2533C17.8403 15.2533 18.9337 14.6799 19.9337 14.1866C20.8003 13.7599 21.507 13.3866 22.667 13.3866C23.867 13.3866 24.5337 13.7199 25.4003 14.1866C26.0937 14.5333 26.8403 14.9199 27.8403 15.1199C28.0205 15.1551 28.2061 15.1503 28.3842 15.1058C28.5622 15.0613 28.7283 14.9783 28.8708 14.8626C29.0132 14.7468 29.1285 14.6012 29.2085 14.436C29.2885 14.2709 29.3312 14.0901 29.3337 13.9066V13.7866C29.3337 13.1733 28.8803 12.6933 28.2803 12.5599C27.667 12.4266 27.1737 12.1733 26.6003 11.8666C25.6003 11.3466 24.467 10.7866 22.667 10.7866Z" fill="url(#paint0_linear_8_216)"/>
<defs>
<linearGradient id="paint0_linear_8_216" x1="16.0003" y1="4.87994" x2="16.0003" y2="27.1199" gradientUnits="userSpaceOnUse">
<stop stop-color="#FFBF00"/>
<stop offset="1" stop-color="#F2A60C"/>
</linearGradient>
</defs>
</svg>
