<svg width="32" height="32" viewBox="0 0 32 32" fill="none" xmlns="http://www.w3.org/2000/svg">
<g clip-path="url(#clip0_8_218)">
<path d="M25.3333 9.33331H24.24L21.9733 3.09331C21.7857 2.57878 21.4448 2.13418 20.9965 1.81947C20.5483 1.50476 20.0143 1.33508 19.4667 1.33331H17.3333C16.6 1.33331 16 1.93331 16 2.66665C16 3.39998 16.6 3.99998 17.3333 3.99998H19.4667L21.4133 9.33331H15L14.52 7.99998H14.64C15.3733 7.99998 15.9733 7.39998 15.9733 6.66665C15.9733 5.93331 15.3733 5.33331 14.64 5.33331H10.6667C9.93333 5.33331 9.33333 5.93331 9.33333 6.66665C9.33333 7.39998 9.93333 7.99998 10.6667 7.99998H11.6667L14.0933 14.6666H13.2C12.6133 11.6933 10.12 9.49331 7 9.34665C3.26667 9.15998 0 12.2666 0 16C0 19.7333 2.93333 22.6666 6.66667 22.6666C9.94667 22.6666 12.6 20.4133 13.2 17.3333H18.8C19.3867 20.3066 21.88 22.5066 25 22.6533C28.7333 22.8266 32 19.7333 32 15.9866C32 12.2666 29.0667 9.33331 25.3333 9.33331ZM8 17.3333H10.4267C9.86667 18.9733 8.29333 20.1066 6.4 19.9866C4.41333 19.8666 2.76 18.1866 2.66667 16.1866C2.57333 13.8533 4.36 12 6.66667 12C8.44 12 9.89333 13.1066 10.4267 14.6666H8C7.26667 14.6666 6.66667 15.2666 6.66667 16C6.66667 16.7333 7.26667 17.3333 8 17.3333ZM18.8 14.6666H16.9333L15.96 12H20C19.4133 12.7733 18.9867 13.6666 18.8 14.6666ZM25.1733 20C23.12 19.92 21.3867 18.1733 21.3333 16.1066C21.3067 14.8266 21.8533 13.7066 22.7333 12.96L23.56 15.2266C23.8133 15.92 24.5733 16.28 25.2667 16.0266C25.96 15.7733 26.32 15.0133 26.0667 14.32L25.2267 12.0133L25.24 12C25.7746 11.9817 26.3073 12.072 26.806 12.2654C27.3047 12.4588 27.7591 12.7512 28.1416 13.1251C28.5242 13.4989 28.827 13.9464 29.0319 14.4405C29.2367 14.9346 29.3392 15.4651 29.3333 16C29.3333 18.2933 27.4933 20.08 25.1733 20ZM14.6667 26.6666H9.33333L17.3333 30.6666V28H22.6667L14.6667 24V26.6666Z" fill="url(#paint0_linear_8_218)"/>
</g>
<defs>
<linearGradient id="paint0_linear_8_218" x1="16" y1="1.33331" x2="16" y2="30.6666" gradientUnits="userSpaceOnUse">
<stop stop-color="#FFBF00"/>
<stop offset="1" stop-color="#F2A60C"/>
</linearGradient>
<clipPath id="clip0_8_218">
<rect width="32" height="32" fill="white"/>
</clipPath>
</defs>
</svg>
