<svg width="32" height="32" viewBox="0 0 32 32" fill="none" xmlns="http://www.w3.org/2000/svg">
<path d="M16.0002 10.6666C13.0535 10.6666 10.6668 13.0533 10.6668 16C10.6668 18.9466 13.0535 21.3333 16.0002 21.3333C18.9468 21.3333 21.3335 18.9466 21.3335 16C21.3335 13.0533 18.9468 10.6666 16.0002 10.6666ZM27.9202 14.6666C27.6181 11.9628 26.4057 9.44203 24.4819 7.51824C22.5581 5.59445 20.0373 4.382 17.3335 4.07998V2.66665C17.3335 1.93331 16.7335 1.33331 16.0002 1.33331C15.2668 1.33331 14.6668 1.93331 14.6668 2.66665V4.07998C11.963 4.382 9.44221 5.59445 7.51842 7.51824C5.59463 9.44203 4.38218 11.9628 4.08016 14.6666H2.66683C1.9335 14.6666 1.3335 15.2666 1.3335 16C1.3335 16.7333 1.9335 17.3333 2.66683 17.3333H4.08016C4.38218 20.0371 5.59463 22.5579 7.51842 24.4817C9.44221 26.4055 11.963 27.618 14.6668 27.92V29.3333C14.6668 30.0666 15.2668 30.6666 16.0002 30.6666C16.7335 30.6666 17.3335 30.0666 17.3335 29.3333V27.92C20.0373 27.618 22.5581 26.4055 24.4819 24.4817C26.4057 22.5579 27.6181 20.0371 27.9202 17.3333H29.3335C30.0668 17.3333 30.6668 16.7333 30.6668 16C30.6668 15.2666 30.0668 14.6666 29.3335 14.6666H27.9202ZM16.0002 25.3333C10.8402 25.3333 6.66683 21.16 6.66683 16C6.66683 10.84 10.8402 6.66665 16.0002 6.66665C21.1602 6.66665 25.3335 10.84 25.3335 16C25.3335 21.16 21.1602 25.3333 16.0002 25.3333Z" fill="url(#paint0_linear_8_220)"/>
<defs>
<linearGradient id="paint0_linear_8_220" x1="16.0002" y1="1.33331" x2="16.0002" y2="30.6666" gradientUnits="userSpaceOnUse">
<stop stop-color="#FFBF00"/>
<stop offset="1" stop-color="#F2A60C"/>
</linearGradient>
</defs>
</svg>
