<svg width="32" height="32" viewBox="0 0 32 32" fill="none" xmlns="http://www.w3.org/2000/svg">
<path d="M23.9997 10.6666H22.6663V7.99998C22.6663 4.31998 19.6797 1.33331 15.9997 1.33331C12.3197 1.33331 9.33301 4.31998 9.33301 7.99998V10.6666H7.99967C6.53301 10.6666 5.33301 11.8666 5.33301 13.3333V26.6666C5.33301 28.1333 6.53301 29.3333 7.99967 29.3333H23.9997C25.4663 29.3333 26.6663 28.1333 26.6663 26.6666V13.3333C26.6663 11.8666 25.4663 10.6666 23.9997 10.6666ZM15.9997 22.6666C14.533 22.6666 13.333 21.4666 13.333 20C13.333 18.5333 14.533 17.3333 15.9997 17.3333C17.4663 17.3333 18.6663 18.5333 18.6663 20C18.6663 21.4666 17.4663 22.6666 15.9997 22.6666ZM11.9997 10.6666V7.99998C11.9997 5.78665 13.7863 3.99998 15.9997 3.99998C18.213 3.99998 19.9997 5.78665 19.9997 7.99998V10.6666H11.9997Z" fill="url(#paint0_linear_8_222)"/>
<defs>
<linearGradient id="paint0_linear_8_222" x1="15.9997" y1="1.33331" x2="15.9997" y2="29.3333" gradientUnits="userSpaceOnUse">
<stop stop-color="#FFBF00"/>
<stop offset="1" stop-color="#F2A60C"/>
</linearGradient>
</defs>
</svg>
